<?xml version="1.0" encoding="utf-8"?>
<!-- Generator: Adobe Illustrator 23.0.2, SVG Export Plug-In . SVG Version: 6.00 Build 0)  -->
<svg version="1.1" id="svg8" xmlns="http://www.w3.org/2000/svg" xmlns:xlink="http://www.w3.org/1999/xlink" x="0px" y="0px"
	 viewBox="0 0 551 285.4" style="enable-background:new 0 0 551 285.4;" xml:space="preserve">
<style type="text/css">
	.st0{clip-path:url(#SVGID_2_);}
	.st1{fill:#FFFFFF;stroke:#FFFFFF;stroke-width:1.07;stroke-linecap:round;stroke-linejoin:round;}
	.st2{clip-path:url(#SVGID_4_);}
	.st3{fill:none;stroke:#000000;stroke-width:1.07;stroke-linecap:round;stroke-linejoin:round;}
	.st4{fill:none;stroke:#483D3F;stroke-width:1.07;stroke-linejoin:round;}
	.st5{fill:none;stroke:#4A5043;stroke-width:1.07;stroke-linejoin:round;}
	.st6{fill:#8AA1B1;stroke:#483D3F;stroke-width:2.83;stroke-linecap:round;stroke-linejoin:round;}
	.st7{fill:#B9D8C2;stroke:#4A5043;stroke-width:2.83;stroke-linecap:round;stroke-linejoin:round;}
	.st8{font-family:'ArialMT';}
	.st9{font-size:14px;}
	.st10{fill:none;stroke:#333333;stroke-width:1.07;stroke-linejoin:round;}
	.st11{clip-path:url(#SVGID_6_);}
	.st12{clip-path:url(#SVGID_8_);}
	.st13{font-size:18px;}
	.st14{font-family:'Arial-ItalicMT';}
	.st15{letter-spacing:-1;}
	.st16{font-size:15px;}
</style>
<title>Fig 2_defense</title>
<g id="layer1">
	<g id="g4341">
		<g id="g691">
			<g id="g701">
				<g>
					<defs>
						<rect id="SVGID_1_" x="275.4" y="13.7" width="275" height="251.3"/>
					</defs>
					<clipPath id="SVGID_2_">
						<use xlink:href="#SVGID_1_"  style="overflow:visible;"/>
					</clipPath>
					<g class="st0">
						<g id="g703">
							<path id="path709" class="st1" d="M275.4,265h275V13.7h-275V265z"/>
						</g>
					</g>
				</g>
			</g>
			<g id="g713">
				<g>
					<defs>
						<rect id="SVGID_3_" x="298.1" y="19.2" width="246.8" height="237.6"/>
					</defs>
					<clipPath id="SVGID_4_">
						<use xlink:href="#SVGID_3_"  style="overflow:visible;"/>
					</clipPath>
					<g class="st2">
						<g id="g715">
							<path id="path721" class="st3" d="M298.1,256.8H545V19.2H298.1V256.8z"/>
							<path id="path723" class="st4" d="M359.9,240.5h11.2"/>
							<path id="path725" class="st4" d="M365.4,240.5v-7.4"/>
							<path id="path727" class="st4" d="M359.9,233.2h11.2"/>
							<path id="path729" class="st5" d="M472,231.5h11.2"/>
							<path id="path731" class="st5" d="M477.6,231.5v-21.7"/>
							<path id="path733" class="st5" d="M472,209.9h11.2"/>
							<path id="path735" class="st6" d="M356.5,236.9c0-4.9,4-8.9,8.9-8.9s8.9,4,8.9,8.9c0,4.9-4,8.9-8.9,8.9c0,0,0,0,0,0
								C360.5,245.7,356.6,241.8,356.5,236.9"/>
							<path id="path737" class="st7" d="M468.7,220.7c0-4.9,4-8.9,8.9-8.9s8.9,4,8.9,8.9s-4,8.9-8.9,8.9
								C472.7,229.6,468.8,225.6,468.7,220.7"/>
						</g>
					</g>
				</g>
			</g>
			<g id="g769">
				<g id="text773">
					<text transform="matrix(6.123234e-17 -1 1 6.123234e-17 290.91 257.5101)" class="st8 st9">0</text>
					<text transform="matrix(6.123234e-17 -1 1 6.123234e-17 290.91 249.7201)" class="st8 st9">.</text>
					<text transform="matrix(6.123234e-17 -1 1 6.123234e-17 290.91 245.8304)" class="st8 st9">0</text>
					<text transform="matrix(6.123234e-17 -1 1 6.123234e-17 290.91 238.0502)" class="st8 st9">0</text>
				</g>
				<g id="text777">
					<text transform="matrix(6.123234e-17 -1 1 6.123234e-17 290.91 204.5697)" class="st8 st9">0</text>
					<text transform="matrix(6.123234e-17 -1 1 6.123234e-17 290.91 196.7796)" class="st8 st9">.</text>
					<text transform="matrix(6.123234e-17 -1 1 6.123234e-17 290.91 192.89)" class="st8 st9">2</text>
					<text transform="matrix(6.123234e-17 -1 1 6.123234e-17 290.91 185.1097)" class="st8 st9">5</text>
				</g>
				<g id="text781">
					<text transform="matrix(6.123234e-17 -1 1 6.123234e-17 290.91 151.6302)" class="st8 st9">0</text>
					<text transform="matrix(6.123234e-17 -1 1 6.123234e-17 290.91 143.8402)" class="st8 st9">.</text>
					<text transform="matrix(6.123234e-17 -1 1 6.123234e-17 290.91 139.9496)" class="st8 st9">5</text>
					<text transform="matrix(6.123234e-17 -1 1 6.123234e-17 290.91 132.1703)" class="st8 st9">0</text>
				</g>
				<g id="text785">
					<text transform="matrix(6.123234e-17 -1 1 6.123234e-17 290.91 98.6996)" class="st8 st9">0</text>
					<text transform="matrix(6.123234e-17 -1 1 6.123234e-17 290.91 90.9095)" class="st8 st9">.</text>
					<text transform="matrix(6.123234e-17 -1 1 6.123234e-17 290.91 87.0199)" class="st8 st9">7</text>
					<text transform="matrix(6.123234e-17 -1 1 6.123234e-17 290.91 79.2396)" class="st8 st9">5</text>
				</g>
				<g id="text789">
					<text transform="matrix(6.123234e-17 -1 1 6.123234e-17 290.91 45.7601)" class="st8 st9">1</text>
					<text transform="matrix(6.123234e-17 -1 1 6.123234e-17 290.91 37.9701)" class="st8 st9">.</text>
					<text transform="matrix(6.123234e-17 -1 1 6.123234e-17 290.91 34.0804)" class="st8 st9">0</text>
					<text transform="matrix(6.123234e-17 -1 1 6.123234e-17 290.91 26.3002)" class="st8 st9">0</text>
				</g>
			</g>
			<g id="g793">
				<path id="path795" class="st10" d="M295.4,243.9h2.7"/>
				<path id="path797" class="st10" d="M295.4,190.9h2.7"/>
				<path id="path799" class="st10" d="M295.4,138h2.7"/>
				<path id="path801" class="st10" d="M295.4,85h2.7"/>
				<path id="path803" class="st10" d="M295.4,32.1h2.7"/>
			</g>
			<g id="g817">
				<path id="path819" class="st10" d="M365.4,259.5v-2.7"/>
				<path id="path821" class="st10" d="M477.6,259.5v-2.7"/>
			</g>
		</g>
		<g id="g419">
			<g id="g429">
				<g>
					<defs>
						<rect id="SVGID_5_" x="23.1" y="13.7" width="275" height="251.3"/>
					</defs>
					<clipPath id="SVGID_6_">
						<use xlink:href="#SVGID_5_"  style="overflow:visible;"/>
					</clipPath>
					<g class="st11">
						<g id="g431">
							<path id="path437" class="st1" d="M23.1,265h275V13.7h-275V265z"/>
						</g>
					</g>
				</g>
			</g>
			<g id="g441">
				<g>
					<defs>
						<rect id="SVGID_7_" x="45.8" y="19.2" width="246.9" height="237.6"/>
					</defs>
					<clipPath id="SVGID_8_">
						<use xlink:href="#SVGID_7_"  style="overflow:visible;"/>
					</clipPath>
					<g class="st12">
						<g id="g443">
							<path id="path449" class="st3" d="M45.8,256.8h246.8V19.2H45.8V256.8z"/>
							<path id="path451" class="st4" d="M107.5,241h11.2"/>
							<path id="path453" class="st4" d="M113.1,241v-21"/>
							<path id="path455" class="st4" d="M107.5,220h11.2"/>
							<path id="path457" class="st5" d="M219.7,132.8h11.2"/>
							<path id="path459" class="st5" d="M225.3,132.8V62.3"/>
							<path id="path461" class="st5" d="M219.7,62.3h11.2"/>
							<path id="path463" class="st6" d="M104.2,230.6c0-4.9,4-8.9,8.9-8.9s8.9,4,8.9,8.9s-4,8.9-8.9,8.9l0,0
								C108.2,239.4,104.2,235.5,104.2,230.6"/>
							<path id="path465" class="st7" d="M216.4,97.5c0-4.9,4-8.9,8.9-8.9s8.9,4,8.9,8.9s-4,8.9-8.9,8.9l0,0
								C220.4,106.4,216.4,102.5,216.4,97.5"/>
						</g>
					</g>
				</g>
			</g>
			<g id="g497">
				<g id="text501">
					<text transform="matrix(6.123234e-17 -1 1 6.123234e-17 38.59 257.5101)" class="st8 st9">0</text>
					<text transform="matrix(6.123234e-17 -1 1 6.123234e-17 38.59 249.7201)" class="st8 st9">.</text>
					<text transform="matrix(6.123234e-17 -1 1 6.123234e-17 38.59 245.8304)" class="st8 st9">0</text>
					<text transform="matrix(6.123234e-17 -1 1 6.123234e-17 38.59 238.0502)" class="st8 st9">0</text>
				</g>
				<g id="text505">
					<text transform="matrix(6.123234e-17 -1 1 6.123234e-17 38.59 204.5697)" class="st8 st9">0</text>
					<text transform="matrix(6.123234e-17 -1 1 6.123234e-17 38.59 196.7796)" class="st8 st9">.</text>
					<text transform="matrix(6.123234e-17 -1 1 6.123234e-17 38.59 192.89)" class="st8 st9">2</text>
					<text transform="matrix(6.123234e-17 -1 1 6.123234e-17 38.59 185.1097)" class="st8 st9">5</text>
				</g>
				<g id="text509">
					<text transform="matrix(6.123234e-17 -1 1 6.123234e-17 38.59 151.6302)" class="st8 st9">0</text>
					<text transform="matrix(6.123234e-17 -1 1 6.123234e-17 38.59 143.8402)" class="st8 st9">.</text>
					<text transform="matrix(6.123234e-17 -1 1 6.123234e-17 38.59 139.9496)" class="st8 st9">5</text>
					<text transform="matrix(6.123234e-17 -1 1 6.123234e-17 38.59 132.1703)" class="st8 st9">0</text>
				</g>
				<g id="text513">
					<text transform="matrix(6.123234e-17 -1 1 6.123234e-17 38.59 98.6996)" class="st8 st9">0</text>
					<text transform="matrix(6.123234e-17 -1 1 6.123234e-17 38.59 90.9095)" class="st8 st9">.</text>
					<text transform="matrix(6.123234e-17 -1 1 6.123234e-17 38.59 87.0199)" class="st8 st9">7</text>
					<text transform="matrix(6.123234e-17 -1 1 6.123234e-17 38.59 79.2396)" class="st8 st9">5</text>
				</g>
				<g id="text517">
					<text transform="matrix(6.123234e-17 -1 1 6.123234e-17 38.59 45.7601)" class="st8 st9">1</text>
					<text transform="matrix(6.123234e-17 -1 1 6.123234e-17 38.59 37.9701)" class="st8 st9">.</text>
					<text transform="matrix(6.123234e-17 -1 1 6.123234e-17 38.59 34.0804)" class="st8 st9">0</text>
					<text transform="matrix(6.123234e-17 -1 1 6.123234e-17 38.59 26.3002)" class="st8 st9">0</text>
				</g>
			</g>
			<g id="g521">
				<path id="path523" class="st10" d="M43,243.9h2.7"/>
				<path id="path525" class="st10" d="M43,190.9h2.7"/>
				<path id="path527" class="st10" d="M43,138h2.7"/>
				<path id="path529" class="st10" d="M43,85h2.7"/>
				<path id="path531" class="st10" d="M43,32.1h2.7"/>
			</g>
			<g id="g545">
				<path id="path547" class="st10" d="M113.1,259.5v-2.7"/>
				<path id="path549" class="st10" d="M225.3,259.5v-2.7"/>
			</g>
		</g>
		<g id="text5479">
			<text transform="matrix(1 0 0 1 55.5 279.02)" class="st8 st13">Diversionary</text>
		</g>
		<g id="text5479-7">
			<text transform="matrix(1 0 0 1 193.53 279.53)" class="st8 st13">Control</text>
		</g>
		<g id="text5479-2">
			<text transform="matrix(1 0 0 1 311.18 279.03)" class="st8 st13">Diversionary</text>
		</g>
		<g id="text5479-7-7">
			<text transform="matrix(1 0 0 1 449.21 279.53)" class="st8 st13">Control</text>
		</g>
		<g id="text5479-2-0">
			<text transform="matrix(1 0 0 1 300.37 15.44)" class="st14 st13">V</text>
			<text transform="matrix(1 0 0 1 311.71 15.44)" class="st14 st13">ernonia angustifolia</text>
		</g>
		<g id="text5479-2-0-7">
			<text transform="matrix(1 0 0 1 46.23 15.44)" class="st14 st13 st15">T</text>
			<text transform="matrix(1 0 0 1 55.57 15.44)" class="st14 st13">ephrosia virginiana</text>
		</g>
		<g id="text5479-7-4-2-7">
			<text transform="matrix(1 0 0 1 254.94 42.13)" class="st8 st16">***</text>
		</g>
		<g id="text5479-7-4-2-7-3">
			<text transform="matrix(1 0 0 1 519.58 42.13)" class="st8 st16">*</text>
		</g>
	</g>
</g>
<g>
	<path d="M10,259.5c0.5,0,1.1,0.1,1.6,0.3c0.5,0.2,0.9,0.5,1.3,0.8c0.5,0.5,0.8,1,1,1.6c0.2,0.6,0.4,1.4,0.4,2.3v1.7l4.9-0.1v1.7
		L6,268.1v-3.5c0-0.8,0.1-1.4,0.2-2c0.2-0.5,0.4-1.1,0.7-1.5c0.3-0.5,0.7-0.8,1.2-1.1C8.6,259.7,9.2,259.5,10,259.5L10,259.5z
		 M10,261.3c-0.5,0-0.8,0.1-1.2,0.2c-0.4,0.2-0.6,0.4-0.8,0.7c-0.2,0.3-0.3,0.7-0.4,1c-0.1,0.4-0.1,0.8-0.1,1.3v1.7h5.2v-1.5
		c0-0.7-0.1-1.3-0.2-1.7c-0.1-0.5-0.4-0.8-0.6-1.1c-0.3-0.3-0.6-0.5-0.9-0.6C10.8,261.4,10.4,261.3,10,261.3L10,261.3z"/>
	<path d="M11.1,251.3L11.1,251.3c-0.1,0.3-0.1,0.5-0.1,0.8s-0.1,0.5-0.1,0.8c0,0.5,0.1,1,0.4,1.5c0.2,0.4,0.5,0.9,0.9,1.3h7v1.7H9.3
		v-1.6l1.4-0.1c-0.5-0.6-0.9-1.2-1.1-1.7c-0.2-0.5-0.4-1-0.4-1.6c0-0.3,0-0.5,0-0.6c0.1-0.2,0.1-0.4,0.1-0.6H11.1z"/>
	<path d="M14.1,241.3c1.6,0,2.9,0.4,3.8,1.2c0.9,0.8,1.4,1.9,1.4,3.3c0,1.4-0.5,2.5-1.4,3.4c-0.9,0.8-2.2,1.2-3.8,1.2
		s-2.9-0.4-3.8-1.2c-1-0.8-1.4-1.9-1.4-3.3c0-1.4,0.5-2.5,1.4-3.3C11.3,241.7,12.6,241.3,14.1,241.3L14.1,241.3z M14.2,243
		c-1.3,0-2.2,0.2-2.9,0.7c-0.6,0.5-0.9,1.2-0.9,2.1c0,0.9,0.3,1.6,1,2.1c0.6,0.5,1.6,0.7,2.8,0.7c1.2,0,2.2-0.3,2.8-0.8
		c0.7-0.5,1-1.2,1-2.1c0-0.8-0.3-1.6-1-2C16.3,243.3,15.4,243,14.2,243L14.2,243z"/>
	<path d="M14.1,230.1c0.8,0,1.6,0.1,2.2,0.4s1.2,0.5,1.6,1c0.5,0.4,0.8,0.8,1.1,1.3c0.2,0.5,0.3,1.1,0.3,1.7c0,0.5-0.1,1-0.2,1.4
		c-0.1,0.4-0.3,0.8-0.5,1.3l0.5,0.1v1.6l-13.7,0.1v-1.7h4.9c-0.4-0.5-0.7-1-1-1.5c-0.2-0.5-0.4-1.1-0.4-1.7c0-1.1,0.4-2,1.3-2.8
		C11.2,230.4,12.4,230.1,14.1,230.1L14.1,230.1z M14.1,231.8c-1.1,0-2,0.2-2.6,0.6c-0.6,0.4-0.9,1-0.9,1.9c0,0.5,0.1,1,0.3,1.4
		c0.2,0.5,0.5,1,0.8,1.4h5.6c0.2-0.5,0.4-0.9,0.5-1.2c0.1-0.4,0.1-0.8,0.1-1.2c0-0.9-0.3-1.6-0.9-2.1
		C16.3,232.1,15.4,231.8,14.1,231.8L14.1,231.8z"/>
	<path d="M19,219.9v1.6h-1c0.1,0.2,0.2,0.4,0.4,0.6c0.2,0.3,0.3,0.5,0.4,0.7c0.1,0.3,0.2,0.6,0.4,1c0.1,0.4,0.1,0.8,0.1,1.3
		c0,0.9-0.3,1.6-0.9,2.3c-0.5,0.6-1.3,0.9-2.2,0.9c-0.7,0-1.3-0.1-1.8-0.5c-0.5-0.3-0.8-0.8-1.1-1.3c-0.3-0.6-0.5-1.3-0.5-2.2
		c-0.1-0.8-0.2-1.7-0.2-2.7h-0.2c-0.4,0-0.7,0.1-1,0.2c-0.2,0.1-0.4,0.3-0.5,0.6c-0.1,0.2-0.2,0.5-0.3,0.8c0,0.3-0.1,0.7-0.1,1
		c0,0.4,0.1,0.9,0.2,1.4c0.1,0.5,0.3,1.1,0.5,1.6v0.1H9.4c-0.1-0.3-0.2-0.8-0.2-1.4C9,225.4,9,224.8,9,224.2c0-0.7,0.1-1.3,0.2-1.8
		c0.1-0.5,0.3-1,0.5-1.4c0.3-0.4,0.7-0.7,1.1-0.8c0.4-0.2,1-0.3,1.6-0.3H19z M16.6,221.6h-2.8c0.1,0.5,0.1,1.1,0.2,1.7
		c0.1,0.7,0.1,1.3,0.2,1.6c0.1,0.5,0.4,0.9,0.7,1.1c0.2,0.3,0.7,0.5,1.1,0.5c0.6,0,1-0.2,1.3-0.5c0.3-0.3,0.4-0.8,0.4-1.6
		c0-0.5-0.1-1.1-0.3-1.6C17.2,222.4,16.9,221.9,16.6,221.6L16.6,221.6z"/>
	<path d="M14,208.1c0.8,0,1.6,0.1,2.2,0.4c0.7,0.2,1.2,0.5,1.6,0.9c0.5,0.4,0.8,0.9,1.1,1.4c0.2,0.5,0.3,1,0.3,1.6s-0.1,1.1-0.2,1.5
		s-0.3,0.8-0.5,1.2l0.5,0.1v1.6H5.3v-1.6h4.9c-0.4-0.5-0.7-1-1-1.5s-0.4-1.1-0.4-1.7c0-1.2,0.4-2.1,1.3-2.8
		C11.1,208.4,12.4,208.1,14,208.1L14,208.1z M14,209.7c-1.1,0-2,0.2-2.6,0.6c-0.6,0.4-0.9,1-0.9,1.9c0,0.5,0.1,1,0.3,1.5
		c0.2,0.5,0.5,0.9,0.8,1.4l5.6-0.1c0.2-0.5,0.4-0.8,0.5-1.2c0.1-0.4,0.1-0.7,0.1-1.1c0-0.9-0.3-1.6-0.9-2.2
		C16.3,210,15.3,209.7,14,209.7L14,209.7z"/>
	<path d="M7.5,203.7l0.1,1.9H5.8v-1.9H7.5z M19,203.8v1.7H9.1v-1.7H19z"/>
	<polygon points="18.9,198.8 18.9,200.5 5.2,200.6 5.2,198.9 	"/>
	<path d="M7.5,193.8v1.9H5.8l-0.1-1.9L7.5,193.8z M18.9,193.9v1.6l-9.8,0.1l-0.1-1.7H18.9z"/>
	<path d="M18.8,185.5c0.1,0.3,0.2,0.7,0.2,1c0.1,0.4,0.1,0.7,0.1,1c0,1-0.2,1.8-0.8,2.3c-0.5,0.5-1.4,0.8-2.6,0.8h-5.2v1.1H9.1v-1.1
		H6.3v-1.7h2.8v-3.4h1.4v3.4H15c0.5,0,0.9,0,1.2-0.1c0.3,0,0.5-0.1,0.8-0.2c0.2-0.1,0.4-0.3,0.5-0.5c0.1-0.2,0.2-0.5,0.2-1
		c0-0.2-0.1-0.5-0.1-0.8c-0.1-0.3-0.2-0.5-0.2-0.6v-0.1H18.8z"/>
	<polygon points="9.1,175.1 22.5,180.8 22.5,182.6 18.4,180.8 9.1,184.7 9.1,182.9 16.3,179.9 9.1,176.9 	"/>
	<path d="M13.9,158.3c1.6-0.1,2.8,0.4,3.8,1.2c0.9,0.8,1.4,1.9,1.4,3.3s-0.4,2.5-1.4,3.3c-0.9,0.8-2.2,1.2-3.8,1.3
		c-1.6,0-2.9-0.4-3.8-1.3c-1-0.8-1.4-1.9-1.4-3.3c-0.1-1.4,0.4-2.5,1.4-3.3C11.1,158.6,12.3,158.3,13.9,158.3L13.9,158.3z
		 M13.9,159.9c-1.3,0-2.2,0.2-2.8,0.8c-0.7,0.5-1,1.1-1,2s0.3,1.6,1,2.1c0.6,0.5,1.6,0.7,2.8,0.7s2.2-0.2,2.8-0.7
		c0.6-0.5,1-1.2,0.9-2.1c0-0.9-0.3-1.6-0.9-2.1C16.1,160.2,15.2,159.9,13.9,159.9L13.9,159.9z"/>
	<path d="M6.7,150.4L6.7,150.4c-0.1,0.3-0.1,0.5-0.2,0.8c-0.1,0.3-0.1,0.6-0.1,0.8c0,0.7,0.2,1.3,0.5,1.6c0.3,0.3,0.8,0.5,1.7,0.5H9
		v-3h1.4v2.9h8.4v1.6h-8.4v1.1H9v-1.1H8.7c-1.1,0-2-0.3-2.6-0.9c-0.7-0.6-1-1.4-1-2.5c0-0.4,0-0.7,0.1-1c0-0.3,0.1-0.6,0.1-0.8H6.7z
		"/>
	<path d="M15.9,136c0.9,0,1.7,0.4,2.2,1.1c0.6,0.8,0.9,1.7,0.9,3.1c0,0.7-0.1,1.4-0.3,2c-0.1,0.6-0.4,1.1-0.5,1.6h-1.9v-0.1
		c0.4-0.5,0.7-1.1,1-1.7c0.2-0.6,0.3-1.3,0.3-1.8c0-0.8-0.1-1.3-0.4-1.7c-0.2-0.4-0.6-0.6-1.1-0.6c-0.4,0-0.7,0.1-0.9,0.4
		c-0.2,0.2-0.4,0.6-0.5,1.3c-0.1,0.2-0.1,0.5-0.2,0.9c-0.1,0.4-0.2,0.7-0.2,1c-0.2,0.9-0.5,1.5-1,1.9c-0.4,0.4-1,0.5-1.6,0.5
		c-0.4,0-0.8-0.1-1.1-0.2c-0.4-0.2-0.7-0.4-1-0.8c-0.2-0.3-0.5-0.7-0.7-1.2c-0.2-0.5-0.2-1.1-0.2-1.7c0-0.6,0.1-1.1,0.2-1.7
		c0.1-0.6,0.3-1.1,0.5-1.5l1.8-0.1v0.1c-0.3,0.4-0.6,1-0.8,1.6c-0.2,0.6-0.4,1.2-0.4,1.7c0,0.6,0.1,1.1,0.4,1.6s0.6,0.6,1,0.6
		s0.7-0.1,1-0.4c0.2-0.2,0.4-0.7,0.5-1.2c0.1-0.3,0.1-0.7,0.2-1c0.1-0.4,0.2-0.7,0.2-1c0.2-0.8,0.5-1.4,0.9-1.8S15.2,136,15.9,136
		L15.9,136z"/>
	<path d="M14,125.4v7.3c0.6,0,1.1-0.1,1.6-0.3c0.4-0.2,0.8-0.4,1.1-0.7c0.3-0.3,0.5-0.7,0.6-1.1c0.2-0.4,0.2-0.9,0.2-1.4
		c0-0.7-0.1-1.4-0.4-2c-0.2-0.7-0.5-1.1-0.8-1.4v-0.1l1.8-0.1c0.2,0.6,0.4,1.1,0.6,1.7c0.2,0.5,0.2,1.2,0.2,1.8
		c0,1.6-0.4,2.9-1.3,3.8c-0.9,0.9-2.1,1.4-3.7,1.4s-2.9-0.4-3.8-1.3c-1-0.8-1.4-2-1.4-3.4c0-1.3,0.4-2.3,1.1-3.1
		c0.8-0.7,1.9-1.1,3.3-1.1H14z M12.7,127c-0.8,0-1.6,0.2-2,0.7c-0.5,0.4-0.7,1.1-0.7,2s0.2,1.6,0.8,2.1c0.5,0.5,1.1,0.8,1.9,0.9V127
		z"/>
	<path d="M14,114.7v7.2c0.6,0,1.1-0.1,1.6-0.2c0.5-0.2,0.8-0.5,1.1-0.8c0.2-0.3,0.5-0.7,0.6-1.1s0.2-0.9,0.2-1.4
		c0-0.7-0.1-1.3-0.4-2c-0.3-0.7-0.5-1.1-0.8-1.4v-0.1h1.8c0.2,0.5,0.4,1.1,0.5,1.7c0.2,0.6,0.2,1.2,0.2,1.9c0.1,1.6-0.4,2.9-1.3,3.8
		c-0.9,0.9-2.2,1.4-3.8,1.4s-2.9-0.4-3.8-1.3c-0.9-0.9-1.4-2-1.4-3.5c-0.1-1.3,0.4-2.3,1.1-3.1c0.8-0.7,1.9-1.1,3.3-1.1H14z
		 M12.7,116.3c-0.9,0-1.6,0.2-2,0.7c-0.5,0.4-0.7,1.1-0.7,1.9c0,0.9,0.3,1.6,0.8,2.2c0.5,0.5,1.2,0.8,2,0.8V116.3z"/>
	<path d="M18.7,104.2v1.7h-1c0.4,0.4,0.7,1,1,1.4c0.2,0.5,0.4,1.1,0.4,1.7c0,1.2-0.5,2.1-1.4,2.8c-0.9,0.7-2.1,1-3.7,1
		c-0.8,0-1.6-0.1-2.2-0.4c-0.7-0.2-1.2-0.5-1.7-1c-0.4-0.4-0.8-0.8-1-1.4s-0.4-1.1-0.4-1.6c0-0.5,0.1-1,0.2-1.4
		c0.1-0.4,0.2-0.8,0.5-1.3H5v-1.6L18.7,104.2z M16.3,105.9h-5.6c-0.2,0.4-0.4,0.8-0.4,1.2c-0.1,0.4-0.1,0.7-0.1,1.1
		c0,0.9,0.4,1.6,1,2.2c0.7,0.5,1.6,0.8,2.8,0.8s2-0.2,2.7-0.6c0.6-0.4,0.9-1.1,0.9-1.9c0-0.5-0.1-1-0.4-1.4
		C16.9,106.7,16.6,106.3,16.3,105.9L16.3,105.9z"/>
	<path d="M13.6,86c0.8,0,1.6,0.1,2.2,0.3c0.7,0.2,1.2,0.5,1.7,1c0.4,0.4,0.8,0.8,1,1.4c0.2,0.5,0.4,1.1,0.4,1.7c0,0.5-0.1,1-0.2,1.4
		c-0.1,0.4-0.3,0.8-0.5,1.3h4.1v1.6L8.8,94.7V93h1c-0.4-0.4-0.7-0.9-0.9-1.4c-0.3-0.6-0.4-1.1-0.4-1.8c0-1.1,0.5-2.1,1.4-2.8
		C10.8,86.3,12,86,13.6,86L13.6,86z M13.6,87.7c-1.1,0-2,0.2-2.6,0.6c-0.6,0.4-0.9,1-0.9,1.9c0,0.5,0.1,1,0.4,1.4
		c0.2,0.5,0.5,1,0.8,1.4h5.6c0.2-0.5,0.4-0.9,0.4-1.2c0.1-0.4,0.1-0.7,0.1-1.1c0-1-0.3-1.7-1-2.2C15.8,87.9,14.9,87.7,13.6,87.7
		L13.6,87.7z"/>
	<path d="M10.6,77.3L10.6,77.3c-0.1,0.3-0.1,0.5-0.1,0.8c0,0.2,0,0.5,0,0.8c0,0.5,0.1,1,0.3,1.4s0.5,1,0.9,1.4h7v1.6l-9.8,0.1v-1.7
		h1.5c-0.5-0.7-0.9-1.2-1.1-1.7c-0.2-0.5-0.4-1-0.4-1.5c0-0.3,0-0.5,0.1-0.7c0-0.1,0-0.3,0.1-0.5H10.6z"/>
	<path d="M13.8,67.5l0.1,7.3c0.6,0,1.1-0.1,1.6-0.3c0.5-0.2,0.8-0.4,1.1-0.7c0.3-0.3,0.5-0.7,0.7-1.1c0.1-0.4,0.2-0.9,0.2-1.4
		c0-0.7-0.1-1.4-0.4-2c-0.3-0.7-0.5-1.1-0.8-1.4v-0.1H18c0.2,0.6,0.5,1.1,0.6,1.7c0.2,0.5,0.2,1.2,0.2,1.8c0,1.6-0.4,2.9-1.3,3.8
		c-0.9,0.9-2.2,1.4-3.8,1.4s-2.9-0.4-3.8-1.3c-1-0.8-1.4-2-1.4-3.4c0-1.3,0.4-2.3,1.2-3.1c0.7-0.7,1.9-1.1,3.3-1.1H13.8z M12.6,69.1
		c-0.8,0-1.5,0.2-2,0.7c-0.5,0.4-0.7,1.1-0.7,2s0.3,1.6,0.8,2.1c0.5,0.5,1.2,0.8,2,0.9L12.6,69.1z"/>
	<path d="M18.6,57v1.6h-1c0.4,0.5,0.7,1,1,1.5c0.2,0.5,0.4,1.1,0.4,1.7c0,1.1-0.5,2.1-1.4,2.8c-0.9,0.7-2.2,1-3.7,1
		c-0.8,0-1.6-0.1-2.2-0.4c-0.7-0.2-1.2-0.5-1.7-1c-0.4-0.4-0.8-0.8-1-1.4c-0.2-0.5-0.4-1.1-0.4-1.7c0-0.5,0.1-1,0.2-1.3
		c0.1-0.4,0.2-0.8,0.5-1.3H4.9V57H18.6z M16.2,58.7l-5.6,0.1c-0.2,0.4-0.4,0.8-0.4,1.2C10,60.2,10,60.6,10,61.1c0,0.9,0.4,1.6,1,2.2
		c0.7,0.5,1.6,0.8,2.8,0.7c1.2,0,2-0.2,2.6-0.6c0.6-0.4,0.9-1,0.9-1.9c0-0.4-0.1-0.9-0.3-1.4C16.8,59.6,16.5,59.1,16.2,58.7
		L16.2,58.7z"/>
	<path d="M18.5,46.1l0.1,1.7h-1.1c0.1,0.1,0.2,0.4,0.4,0.6c0.2,0.2,0.3,0.5,0.4,0.7c0.1,0.2,0.2,0.6,0.4,1c0.1,0.3,0.1,0.7,0.1,1.2
		c0,0.9-0.3,1.7-0.8,2.3c-0.6,0.6-1.4,0.9-2.3,0.9c-0.7,0.1-1.3-0.1-1.8-0.4c-0.4-0.4-0.8-0.8-1.1-1.4s-0.4-1.3-0.5-2.2
		c-0.1-0.8-0.2-1.7-0.2-2.7h-0.2c-0.4,0-0.7,0.1-0.9,0.2c-0.2,0.2-0.5,0.4-0.6,0.6c-0.1,0.2-0.2,0.5-0.3,0.8c0,0.3-0.1,0.7-0.1,1
		c0,0.4,0.1,0.9,0.2,1.4s0.3,1.1,0.5,1.7v0.1H9c-0.1-0.3-0.2-0.8-0.3-1.4S8.5,51,8.5,50.4c0-0.7,0.1-1.3,0.2-1.8
		c0.1-0.5,0.3-1,0.6-1.3c0.2-0.4,0.6-0.7,1-0.8c0.4-0.2,1-0.3,1.6-0.3L18.5,46.1z M16.1,47.8h-2.7c0,0.5,0.1,1.1,0.1,1.8
		c0.1,0.7,0.1,1.2,0.2,1.6c0.2,0.5,0.4,0.8,0.7,1.1c0.3,0.3,0.7,0.4,1.1,0.4c0.6,0,1-0.2,1.3-0.5c0.2-0.4,0.4-0.9,0.4-1.6
		c0-0.6-0.1-1.1-0.4-1.6S16.5,48.2,16.1,47.8L16.1,47.8z"/>
	<path d="M18.4,37.8c0.1,0.3,0.1,0.7,0.2,1c0.1,0.4,0.1,0.7,0.1,1c0,1-0.2,1.8-0.8,2.3c-0.5,0.5-1.4,0.8-2.6,0.8h-5.2V44H8.7v-1.1
		H5.9v-1.7h2.8l-0.1-3.4h1.4v3.4h4.4c0.5,0,1,0,1.3-0.1c0.2,0,0.5-0.1,0.8-0.2c0.2-0.1,0.4-0.3,0.5-0.5c0.1-0.2,0.1-0.5,0.1-1
		c0-0.2,0-0.5-0.1-0.8c-0.1-0.3-0.1-0.5-0.2-0.6v-0.1H18.4z"/>
	<path d="M7,34.1V36H5.3v-1.9H7z M18.5,34.2v1.6l-9.8,0.1v-1.7H18.5z"/>
	<path d="M13.6,22.5c1.6,0,2.8,0.4,3.8,1.2c0.9,0.8,1.4,1.9,1.4,3.3c0,1.4-0.4,2.5-1.4,3.3c-0.9,0.8-2.2,1.3-3.8,1.3
		s-2.9-0.4-3.8-1.2c-1-0.8-1.4-1.9-1.4-3.4c0-1.3,0.5-2.5,1.4-3.3C10.7,23,12,22.5,13.6,22.5L13.6,22.5z M13.6,24.2
		c-1.3,0-2.2,0.2-2.8,0.8c-0.7,0.5-1,1.2-1,2c0,0.9,0.3,1.6,1,2.1c0.6,0.5,1.6,0.7,2.8,0.7c1.2,0,2.2-0.2,2.8-0.7
		c0.6-0.5,0.9-1.2,0.9-2.1c0-0.9-0.3-1.6-0.9-2C15.7,24.5,14.8,24.2,13.6,24.2L13.6,24.2z"/>
	<path d="M18.4,11.7v1.7h-5.6c-0.5,0-0.9,0-1.3,0.1c-0.4,0.1-0.7,0.2-1,0.3s-0.4,0.4-0.5,0.7c-0.1,0.2-0.2,0.6-0.2,1
		c0,0.5,0.1,1,0.4,1.4c0.2,0.5,0.5,1,0.8,1.4l7.3-0.1V20H8.7v-1.6h1.1c-0.4-0.5-0.8-1.1-1-1.6S8.4,15.6,8.4,15c0-1.1,0.3-1.9,1-2.5
		c0.6-0.5,1.6-0.8,2.8-0.8H18.4z"/>
</g>
</svg>
