<?xml version="1.0" encoding="utf-8"?>
<!-- Generator: Adobe Illustrator 23.0.2, SVG Export Plug-In . SVG Version: 6.00 Build 0)  -->
<svg version="1.1"
	 id="svg8" inkscape:export-filename="C:\Users\Quinn Sorenson\Documents\R\Git_R\Diversionary_seeding\figures\Fig 3v2.png" inkscape:export-xdpi="500" inkscape:export-ydpi="500" inkscape:version="0.92.3 (2405546, 2018-03-11)" sodipodi:docname="Fig 3.svg" xmlns:cc="http://creativecommons.org/ns#" xmlns:dc="http://purl.org/dc/elements/1.1/" xmlns:inkscape="http://www.inkscape.org/namespaces/inkscape" xmlns:rdf="http://www.w3.org/1999/02/22-rdf-syntax-ns#" xmlns:sodipodi="http://sodipodi.sourceforge.net/DTD/sodipodi-0.dtd" xmlns:svg="http://www.w3.org/2000/svg"
	 xmlns="http://www.w3.org/2000/svg" xmlns:xlink="http://www.w3.org/1999/xlink" x="0px" y="0px" viewBox="0 0 595.3 645.9"
	 style="enable-background:new 0 0 595.3 645.9;" xml:space="preserve">
<style type="text/css">
	.st0{clip-path:url(#SVGID_2_);}
	.st1{fill:#FFFFFF;stroke:#FFFFFF;stroke-width:1.07;stroke-linecap:round;stroke-linejoin:round;stroke-miterlimit:10;}
	.st2{clip-path:url(#SVGID_4_);}
	.st3{fill:none;stroke:#000000;stroke-width:1.07;stroke-linecap:round;stroke-linejoin:round;stroke-miterlimit:10;}
	.st4{fill:none;stroke:#483D3F;stroke-width:1.07;stroke-linejoin:round;stroke-miterlimit:10;}
	.st5{fill:none;stroke:#4A5043;stroke-width:1.07;stroke-linejoin:round;stroke-miterlimit:10;}
	.st6{fill:#ACBDBA;stroke:#483D3F;stroke-width:2.83;stroke-linecap:round;stroke-linejoin:round;stroke-miterlimit:10;}
	.st7{fill:#ECE4B7;stroke:#4A5043;stroke-width:2.83;stroke-linecap:round;stroke-linejoin:round;stroke-miterlimit:10;}
	.st8{font-family:'ArialMT';}
	.st9{font-size:14px;}
	.st10{fill:none;stroke:#333333;stroke-width:1.07;stroke-linejoin:round;stroke-miterlimit:10;}
	.st11{clip-path:url(#SVGID_6_);}
	.st12{clip-path:url(#SVGID_8_);}
	.st13{clip-path:url(#SVGID_10_);}
	.st14{clip-path:url(#SVGID_12_);}
	.st15{clip-path:url(#SVGID_14_);}
	.st16{clip-path:url(#SVGID_16_);}
	.st17{font-family:'Arial-ItalicMT';}
	.st18{font-size:18px;}
</style>
<sodipodi:namedview  bordercolor="#666666" borderopacity="1.0" id="base" inkscape:current-layer="g4341" inkscape:cx="572.47592" inkscape:cy="686.64951" inkscape:document-units="mm" inkscape:pageopacity="0.0" inkscape:pageshadow="2" inkscape:window-height="801" inkscape:window-maximized="1" inkscape:window-width="1536" inkscape:window-x="-8" inkscape:window-y="-8" inkscape:zoom="0.54" pagecolor="#ffffff" showgrid="false">
	</sodipodi:namedview>
<g id="layer1" inkscape:groupmode="layer" inkscape:label="Layer 1">
	<g id="g4341" inkscape:export-xdpi="500" inkscape:export-ydpi="500">
		<g id="g1235" transform="matrix(0.35277777,0,0,-0.35277777,100.169,206.69487)" inkscape:label="Fig_3d2">
			<g id="g1237">
			</g>
			<g id="g1239">
			</g>
			<g id="g1241">
			</g>
			<g id="g1243">
			</g>
			<g id="g1245">
				<g>
					<defs>
						<rect id="SVGID_1_" x="773.4" y="-844.5" width="275.3" height="251.3"/>
					</defs>
					<clipPath id="SVGID_2_">
						<use xlink:href="#SVGID_1_"  style="overflow:visible;"/>
					</clipPath>
					<g id="g1247" class="st0">
						<path id="path1253" inkscape:connector-curvature="0" class="st1" d="M520.9-1074.9h780.2v712.2H520.9V-1074.9z"/>
					</g>
				</g>
			</g>
			<g id="g1255">
			</g>
			<g id="g1257">
				<g>
					<defs>
						<rect id="SVGID_3_" x="811.9" y="-833.7" width="247.1" height="237.6"/>
					</defs>
					<clipPath id="SVGID_4_">
						<use xlink:href="#SVGID_3_"  style="overflow:visible;"/>
					</clipPath>
					<g id="g1259" class="st2">
						<path id="path1265" inkscape:connector-curvature="0" class="st3" d="M585.3-1051.6h700.3v673.4H585.3V-1051.6z"/>
						<path id="path1267" inkscape:connector-curvature="0" class="st4" d="M760.4-1000.1h31.8"/>
						<path id="path1269" inkscape:connector-curvature="0" class="st4" d="M776.3-1000.1v56"/>
						<path id="path1271" inkscape:connector-curvature="0" class="st4" d="M760.4-944.1h31.8"/>
						<path id="path1273" inkscape:connector-curvature="0" class="st5" d="M1078.7-980.1h31.8"/>
						<path id="path1275" inkscape:connector-curvature="0" class="st5" d="M1094.6-980.1v61.5"/>
						<path id="path1277" inkscape:connector-curvature="0" class="st5" d="M1078.7-918.7h31.8"/>
						<path id="path1279" inkscape:connector-curvature="0" class="st6" d="M751.1-972.1c0,13.9,11.3,25.2,25.2,25.2
							c13.9,0,25.2-11.3,25.2-25.2c0-13.9-11.3-25.2-25.2-25.2C762.4-997.3,751.1-986,751.1-972.1"/>
						<path id="path1281" inkscape:connector-curvature="0" class="st7" d="M1069.5-949.4c0,13.9,11.3,25.2,25.2,25.2
							c13.9,0,25.2-11.3,25.2-25.2c0-13.8-11.3-25.2-25.2-25.2C1080.8-974.6,1069.5-963.2,1069.5-949.4"/>
					</g>
				</g>
			</g>
			<g id="g1283">
			</g>
			<g id="g1285">
			</g>
			<g id="g1287">
			</g>
			<g id="g1289">
			</g>
			<g id="g1291">
			</g>
			<g id="g1293">
			</g>
			<g id="g1295">
			</g>
			<g id="g1297">
			</g>
			<g id="g1299">
			</g>
			<g id="g1301">
			</g>
			<g id="g1303">
			</g>
			<g id="g1305">
			</g>
			<g id="g1307">
			</g>
			<g id="g1309">
			</g>
			<g id="g1311">
			</g>
			<g id="g1313">
				<text transform="matrix(0 2.8346 2.8346 0 564.9576 -1053.6427)" class="st8 st9">0</text>
				<text transform="matrix(0 2.8346 2.8346 0 564.9576 -1031.5773)" class="st8 st9">.</text>
				<text transform="matrix(0 2.8346 2.8346 0 564.9576 -1020.546)" class="st8 st9">0</text>
				<text transform="matrix(0 2.8346 2.8346 0 564.9576 -998.4807)" class="st8 st9">0</text>
				<text transform="matrix(0 2.8346 2.8346 0 564.9576 -903.6059)" class="st8 st9">0</text>
				<text transform="matrix(0 2.8346 2.8346 0 564.9576 -881.5405)" class="st8 st9">.</text>
				<text transform="matrix(0 2.8346 2.8346 0 564.9576 -870.5065)" class="st8 st9">2</text>
				<text transform="matrix(0 2.8346 2.8346 0 564.9576 -848.4438)" class="st8 st9">5</text>
				<text transform="matrix(0 2.8346 2.8346 0 564.9576 -753.5663)" class="st8 st9">0</text>
				<text transform="matrix(0 2.8346 2.8346 0 564.9576 -731.5009)" class="st8 st9">.</text>
				<text transform="matrix(0 2.8346 2.8346 0 564.9576 -720.4696)" class="st8 st9">5</text>
				<text transform="matrix(0 2.8346 2.8346 0 564.9576 -698.4042)" class="st8 st9">0</text>
				<text transform="matrix(0 2.8346 2.8346 0 564.9576 -603.5295)" class="st8 st9">0</text>
				<text transform="matrix(0 2.8346 2.8346 0 564.9576 -581.4641)" class="st8 st9">.</text>
				<text transform="matrix(0 2.8346 2.8346 0 564.9576 -570.4328)" class="st8 st9">7</text>
				<text transform="matrix(0 2.8346 2.8346 0 564.9576 -548.3674)" class="st8 st9">5</text>
				<text transform="matrix(0 2.8346 2.8346 0 564.9576 -453.4927)" class="st8 st9">1</text>
				<text transform="matrix(0 2.8346 2.8346 0 564.9576 -431.4273)" class="st8 st9">.</text>
				<text transform="matrix(0 2.8346 2.8346 0 564.9576 -420.3932)" class="st8 st9">0</text>
				<text transform="matrix(0 2.8346 2.8346 0 564.9576 -398.3306)" class="st8 st9">0</text>
			</g>
			<g id="g1335">
			</g>
			<g id="g1337">
				<path id="path1339" inkscape:connector-curvature="0" class="st10" d="M577.5-1015h7.8"/>
				<path id="path1341" inkscape:connector-curvature="0" class="st10" d="M577.5-865h7.8"/>
				<path id="path1343" inkscape:connector-curvature="0" class="st10" d="M577.5-715h7.8"/>
				<path id="path1345" inkscape:connector-curvature="0" class="st10" d="M577.5-564.9h7.8"/>
				<path id="path1347" inkscape:connector-curvature="0" class="st10" d="M577.5-414.9h7.8"/>
			</g>
			<g id="g1349">
			</g>
			<g id="g1351">
			</g>
			<g id="g1353">
			</g>
			<g id="g1355">
			</g>
			<g id="g1357">
			</g>
			<g id="g1359">
			</g>
			<g id="g1361">
				<path id="path1363" inkscape:connector-curvature="0" class="st10" d="M776.3-1059.4v7.8"/>
				<path id="path1365" inkscape:connector-curvature="0" class="st10" d="M1094.6-1059.4v7.8"/>
			</g>
			<g id="g1367">
			</g>
			<g id="g1369">
			</g>
			<g id="g1371">
			</g>
			<g id="g1373">
			</g>
			<g id="g1375">
			</g>
			<g id="g1377">
			</g>
			<g id="g1379">
			</g>
			<g id="g1381">
			</g>
			<g id="g1383">
			</g>
			<g id="g1385">
			</g>
			<g id="g1387">
			</g>
			<g id="g1389">
			</g>
			<g id="g1391">
			</g>
			<g id="g1393">
			</g>
			<g id="g1395">
			</g>
			<g id="g1397">
			</g>
			<g id="g1399">
			</g>
			<g id="g1401">
			</g>
			<g id="g1403">
			</g>
			<g id="g1405">
			</g>
			<g id="g1407">
			</g>
			<g id="g1409">
			</g>
		</g>
		<g id="g963" transform="matrix(0.35277777,0,0,-0.35277777,11.005,206.69487)" inkscape:label="Fig_3c2">
			<g id="g965">
			</g>
			<g id="g967">
			</g>
			<g id="g969">
			</g>
			<g id="g971">
			</g>
			<g id="g973">
				<g>
					<defs>
						<rect id="SVGID_5_" x="309.7" y="-844.5" width="275.3" height="251.3"/>
					</defs>
					<clipPath id="SVGID_6_">
						<use xlink:href="#SVGID_5_"  style="overflow:visible;"/>
					</clipPath>
					<g id="g975" class="st11">
						<path id="path981" inkscape:connector-curvature="0" class="st1" d="M57.2-1074.9h780.2v712.2H57.2V-1074.9z"/>
					</g>
				</g>
			</g>
			<g id="g983">
			</g>
			<g id="g985">
				<g>
					<defs>
						<rect id="SVGID_7_" x="348.2" y="-833.7" width="247.1" height="237.6"/>
					</defs>
					<clipPath id="SVGID_8_">
						<use xlink:href="#SVGID_7_"  style="overflow:visible;"/>
					</clipPath>
					<g id="g987" class="st12">
						<path id="path993" inkscape:connector-curvature="0" class="st3" d="M121.6-1051.6h700.3v673.4H121.6V-1051.6z"/>
						<path id="path995" inkscape:connector-curvature="0" class="st4" d="M296.7-1010.1h31.8"/>
						<path id="path997" inkscape:connector-curvature="0" class="st4" d="M312.6-1010.1v22"/>
						<path id="path999" inkscape:connector-curvature="0" class="st4" d="M296.7-988.1h31.8"/>
						<path id="path1001" inkscape:connector-curvature="0" class="st5" d="M615-1005.6h31.8"/>
						<path id="path1003" inkscape:connector-curvature="0" class="st5" d="M630.9-1005.6v20.9"/>
						<path id="path1005" inkscape:connector-curvature="0" class="st5" d="M615-984.7h31.8"/>
						<path id="path1007" inkscape:connector-curvature="0" class="st6" d="M287.4-999.1c0,13.9,11.3,25.2,25.2,25.2
							c13.9,0,25.2-11.3,25.2-25.2c0-13.8-11.3-25.2-25.2-25.2C298.7-1024.3,287.4-1013,287.4-999.1"/>
						<path id="path1009" inkscape:connector-curvature="0" class="st7" d="M605.8-995.1c0,13.9,11.3,25.2,25.2,25.2
							c13.9,0,25.2-11.3,25.2-25.2c0-13.9-11.3-25.2-25.2-25.2C617.1-1020.3,605.8-1009,605.8-995.1"/>
					</g>
				</g>
			</g>
			<g id="g1011">
			</g>
			<g id="g1013">
			</g>
			<g id="g1015">
			</g>
			<g id="g1017">
			</g>
			<g id="g1019">
			</g>
			<g id="g1021">
			</g>
			<g id="g1023">
			</g>
			<g id="g1025">
			</g>
			<g id="g1027">
			</g>
			<g id="g1029">
			</g>
			<g id="g1031">
			</g>
			<g id="g1033">
			</g>
			<g id="g1035">
			</g>
			<g id="g1037">
			</g>
			<g id="g1039">
			</g>
			<g id="g1041">
				<text transform="matrix(0 2.8346 2.8346 0 101.2543 -1053.6427)" class="st8 st9">0</text>
				<text transform="matrix(0 2.8346 2.8346 0 101.2543 -1031.5773)" class="st8 st9">.</text>
				<text transform="matrix(0 2.8346 2.8346 0 101.2543 -1020.546)" class="st8 st9">0</text>
				<text transform="matrix(0 2.8346 2.8346 0 101.2543 -998.4807)" class="st8 st9">0</text>
				<text transform="matrix(0 2.8346 2.8346 0 101.2543 -903.6059)" class="st8 st9">0</text>
				<text transform="matrix(0 2.8346 2.8346 0 101.2543 -881.5405)" class="st8 st9">.</text>
				<text transform="matrix(0 2.8346 2.8346 0 101.2543 -870.5065)" class="st8 st9">2</text>
				<text transform="matrix(0 2.8346 2.8346 0 101.2543 -848.4438)" class="st8 st9">5</text>
				<text transform="matrix(0 2.8346 2.8346 0 101.2543 -753.5663)" class="st8 st9">0</text>
				<text transform="matrix(0 2.8346 2.8346 0 101.2543 -731.5009)" class="st8 st9">.</text>
				<text transform="matrix(0 2.8346 2.8346 0 101.2543 -720.4696)" class="st8 st9">5</text>
				<text transform="matrix(0 2.8346 2.8346 0 101.2543 -698.4042)" class="st8 st9">0</text>
				<text transform="matrix(0 2.8346 2.8346 0 101.2543 -603.5295)" class="st8 st9">0</text>
				<text transform="matrix(0 2.8346 2.8346 0 101.2543 -581.4641)" class="st8 st9">.</text>
				<text transform="matrix(0 2.8346 2.8346 0 101.2543 -570.4328)" class="st8 st9">7</text>
				<text transform="matrix(0 2.8346 2.8346 0 101.2543 -548.3674)" class="st8 st9">5</text>
				<text transform="matrix(0 2.8346 2.8346 0 101.2543 -453.4927)" class="st8 st9">1</text>
				<text transform="matrix(0 2.8346 2.8346 0 101.2543 -431.4273)" class="st8 st9">.</text>
				<text transform="matrix(0 2.8346 2.8346 0 101.2543 -420.3932)" class="st8 st9">0</text>
				<text transform="matrix(0 2.8346 2.8346 0 101.2543 -398.3306)" class="st8 st9">0</text>
			</g>
			<g id="g1063">
			</g>
			<g id="g1065">
				<path id="path1067" inkscape:connector-curvature="0" class="st10" d="M113.8-1015h7.8"/>
				<path id="path1069" inkscape:connector-curvature="0" class="st10" d="M113.8-865h7.8"/>
				<path id="path1071" inkscape:connector-curvature="0" class="st10" d="M113.8-715h7.8"/>
				<path id="path1073" inkscape:connector-curvature="0" class="st10" d="M113.8-564.9h7.8"/>
				<path id="path1075" inkscape:connector-curvature="0" class="st10" d="M113.8-414.9h7.8"/>
			</g>
			<g id="g1077">
			</g>
			<g id="g1079">
			</g>
			<g id="g1081">
			</g>
			<g id="g1083">
			</g>
			<g id="g1085">
			</g>
			<g id="g1087">
			</g>
			<g id="g1089">
				<path id="path1091" inkscape:connector-curvature="0" class="st10" d="M312.6-1059.4v7.8"/>
				<path id="path1093" inkscape:connector-curvature="0" class="st10" d="M630.9-1059.4v7.8"/>
			</g>
			<g id="g1095">
			</g>
			<g id="g1097">
			</g>
			<g id="g1099">
			</g>
			<g id="g1101">
			</g>
			<g id="g1103">
			</g>
			<g id="g1105">
			</g>
			<g id="g1107">
			</g>
			<g id="g1109">
			</g>
			<g id="g1111">
			</g>
			<g id="g1113">
			</g>
			<g id="g1115">
			</g>
			<g id="g1117">
			</g>
			<g id="g1119">
			</g>
			<g id="g1121">
			</g>
			<g id="g1123">
			</g>
			<g id="g1125">
			</g>
			<g id="g1127">
			</g>
			<g id="g1129">
			</g>
			<g id="g1131">
			</g>
			<g id="g1133">
			</g>
			<g id="g1135">
			</g>
			<g id="g1137">
			</g>
		</g>
		<g id="g691" transform="matrix(0.35277777,0,0,-0.35277777,100.169,96.299)" inkscape:label="Fig_3b2">
			<g id="g693">
			</g>
			<g id="g695">
			</g>
			<g id="g697">
			</g>
			<g id="g699">
			</g>
			<g id="g701">
				<g>
					<defs>
						<rect id="SVGID_9_" x="773.4" y="-270.3" width="275.3" height="251.3"/>
					</defs>
					<clipPath id="SVGID_10_">
						<use xlink:href="#SVGID_9_"  style="overflow:visible;"/>
					</clipPath>
					<g id="g703" class="st13">
						<path id="path709" inkscape:connector-curvature="0" class="st1" d="M520.9-500.8h780.2v712.2H520.9V-500.8z"/>
					</g>
				</g>
			</g>
			<g id="g711">
			</g>
			<g id="g713">
				<g>
					<defs>
						<rect id="SVGID_11_" x="811.9" y="-259.6" width="247.1" height="237.6"/>
					</defs>
					<clipPath id="SVGID_12_">
						<use xlink:href="#SVGID_11_"  style="overflow:visible;"/>
					</clipPath>
					<g id="g715" class="st14">
						<path id="path721" inkscape:connector-curvature="0" class="st3" d="M585.3-477.5h700.3v673.4H585.3V-477.5z"/>
						<path id="path723" inkscape:connector-curvature="0" class="st4" d="M760.4-140.8h31.8"/>
						<path id="path725" inkscape:connector-curvature="0" class="st4" d="M776.3-140.8v301.7"/>
						<path id="path727" inkscape:connector-curvature="0" class="st4" d="M760.4,160.9h31.8"/>
						<path id="path729" inkscape:connector-curvature="0" class="st5" d="M1078.7-171.1h31.8"/>
						<path id="path731" inkscape:connector-curvature="0" class="st5" d="M1094.6-171.1V80.8"/>
						<path id="path733" inkscape:connector-curvature="0" class="st5" d="M1078.7,80.8h31.8"/>
						<path id="path735" inkscape:connector-curvature="0" class="st6" d="M751.1,10c0,13.9,11.3,25.2,25.2,25.2
							c13.9,0,25.2-11.3,25.2-25.2s-11.3-25.2-25.2-25.2C762.4-15.2,751.1-3.8,751.1,10"/>
						<path id="path737" inkscape:connector-curvature="0" class="st7" d="M1069.5-45.2c0,13.9,11.3,25.2,25.2,25.2
							c13.9,0,25.2-11.3,25.2-25.2c0-13.8-11.3-25.2-25.2-25.2C1080.8-70.3,1069.5-59,1069.5-45.2"/>
					</g>
				</g>
			</g>
			<g id="g739">
			</g>
			<g id="g741">
			</g>
			<g id="g743">
			</g>
			<g id="g745">
			</g>
			<g id="g747">
			</g>
			<g id="g749">
			</g>
			<g id="g751">
			</g>
			<g id="g753">
			</g>
			<g id="g755">
			</g>
			<g id="g757">
			</g>
			<g id="g759">
			</g>
			<g id="g761">
			</g>
			<g id="g763">
			</g>
			<g id="g765">
			</g>
			<g id="g767">
			</g>
			<g id="g769">
				<text transform="matrix(0 2.8346 2.8346 0 564.9576 -479.5204)" class="st8 st9">0</text>
				<text transform="matrix(0 2.8346 2.8346 0 564.9576 -457.4578)" class="st8 st9">.</text>
				<text transform="matrix(0 2.8346 2.8346 0 564.9576 -446.4237)" class="st8 st9">0</text>
				<text transform="matrix(0 2.8346 2.8346 0 564.9576 -424.3583)" class="st8 st9">0</text>
				<text transform="matrix(0 2.8346 2.8346 0 564.9576 -329.4836)" class="st8 st9">0</text>
				<text transform="matrix(0 2.8346 2.8346 0 564.9576 -307.4182)" class="st8 st9">.</text>
				<text transform="matrix(0 2.8346 2.8346 0 564.9576 -296.3869)" class="st8 st9">2</text>
				<text transform="matrix(0 2.8346 2.8346 0 564.9576 -274.3215)" class="st8 st9">5</text>
				<text transform="matrix(0 2.8346 2.8346 0 564.9576 -179.4467)" class="st8 st9">0</text>
				<text transform="matrix(0 2.8346 2.8346 0 564.9576 -157.3814)" class="st8 st9">.</text>
				<text transform="matrix(0 2.8346 2.8346 0 564.9576 -146.3473)" class="st8 st9">5</text>
				<text transform="matrix(0 2.8346 2.8346 0 564.9576 -124.2847)" class="st8 st9">0</text>
				<text transform="matrix(0 2.8346 2.8346 0 564.9576 -29.4072)" class="st8 st9">0</text>
				<text transform="matrix(0 2.8346 2.8346 0 564.9576 -7.3446)" class="st8 st9">.</text>
				<text transform="matrix(0 2.8346 2.8346 0 564.9576 3.6895)" class="st8 st9">7</text>
				<text transform="matrix(0 2.8346 2.8346 0 564.9576 25.7549)" class="st8 st9">5</text>
				<text transform="matrix(0 2.8346 2.8346 0 564.9576 120.6297)" class="st8 st9">1</text>
				<text transform="matrix(0 2.8346 2.8346 0 564.9576 142.695)" class="st8 st9">.</text>
				<text transform="matrix(0 2.8346 2.8346 0 564.9576 153.7263)" class="st8 st9">0</text>
				<text transform="matrix(0 2.8346 2.8346 0 564.9576 175.7917)" class="st8 st9">0</text>
			</g>
			<g id="g791">
			</g>
			<g id="g793">
				<path id="path795" inkscape:connector-curvature="0" class="st10" d="M577.5-440.9h7.8"/>
				<path id="path797" inkscape:connector-curvature="0" class="st10" d="M577.5-290.9h7.8"/>
				<path id="path799" inkscape:connector-curvature="0" class="st10" d="M577.5-140.8h7.8"/>
				<path id="path801" inkscape:connector-curvature="0" class="st10" d="M577.5,9.2h7.8"/>
				<path id="path803" inkscape:connector-curvature="0" class="st10" d="M577.5,159.3h7.8"/>
			</g>
			<g id="g805">
			</g>
			<g id="g807">
			</g>
			<g id="g809">
			</g>
			<g id="g811">
			</g>
			<g id="g813">
			</g>
			<g id="g815">
			</g>
			<g id="g817">
				<path id="path819" inkscape:connector-curvature="0" class="st10" d="M776.3-485.3v7.8"/>
				<path id="path821" inkscape:connector-curvature="0" class="st10" d="M1094.6-485.3v7.8"/>
			</g>
			<g id="g823">
			</g>
			<g id="g825">
			</g>
			<g id="g827">
			</g>
			<g id="g829">
			</g>
			<g id="g831">
			</g>
			<g id="g833">
			</g>
			<g id="g835">
			</g>
			<g id="g837">
			</g>
			<g id="g839">
			</g>
			<g id="g841">
			</g>
			<g id="g843">
			</g>
			<g id="g845">
			</g>
			<g id="g847">
			</g>
			<g id="g849">
			</g>
			<g id="g851">
			</g>
			<g id="g853">
			</g>
			<g id="g855">
			</g>
			<g id="g857">
			</g>
			<g id="g859">
			</g>
			<g id="g861">
			</g>
			<g id="g863">
			</g>
			<g id="g865">
			</g>
		</g>
		<g id="g428" transform="matrix(0.35277777,0,0,-0.35277777,11.005,96.299)" inkscape:label="Fig_3a2">
			<g id="g430">
			</g>
			<g id="g432">
			</g>
			<g id="g434">
			</g>
			<g id="g436">
			</g>
			<g id="g438">
				<g>
					<defs>
						<rect id="SVGID_13_" x="309.7" y="-270.3" width="275.3" height="251.3"/>
					</defs>
					<clipPath id="SVGID_14_">
						<use xlink:href="#SVGID_13_"  style="overflow:visible;"/>
					</clipPath>
					<g id="g440" class="st15">
						<path id="path446" inkscape:connector-curvature="0" class="st1" d="M57.2-500.8h780.2v712.2H57.2V-500.8z"/>
					</g>
				</g>
			</g>
			<g id="g448">
			</g>
			<g id="g450">
				<g>
					<defs>
						<rect id="SVGID_15_" x="348.2" y="-259.6" width="247.1" height="237.6"/>
					</defs>
					<clipPath id="SVGID_16_">
						<use xlink:href="#SVGID_15_"  style="overflow:visible;"/>
					</clipPath>
					<g id="g452" class="st16">
						<path id="path458" inkscape:connector-curvature="0" class="st3" d="M121.6-477.5h700.3v673.4H121.6V-477.5z"/>
						<path id="path460" inkscape:connector-curvature="0" class="st5" d="M615-439.5h31.8"/>
						<path id="path462" inkscape:connector-curvature="0" class="st5" d="M630.9-439.5v60.7"/>
						<path id="path464" inkscape:connector-curvature="0" class="st5" d="M615-378.7h31.8"/>
						<path id="path466" inkscape:connector-curvature="0" class="st6" d="M287.4-387.2c0,13.9,11.3,25.2,25.2,25.2
							c13.9,0,25.2-11.3,25.2-25.2s-11.3-25.2-25.2-25.2C298.7-412.4,287.4-401.1,287.4-387.2"/>
						<path id="path468" inkscape:connector-curvature="0" class="st7" d="M605.8-409.1c0,13.8,11.3,25.2,25.2,25.2
							c13.9,0,25.2-11.3,25.2-25.2c0-13.9-11.3-25.2-25.2-25.2C617.1-434.3,605.8-422.9,605.8-409.1"/>
					</g>
				</g>
			</g>
			<g id="g470">
			</g>
			<g id="g472">
			</g>
			<g id="g474">
			</g>
			<g id="g476">
			</g>
			<g id="g478">
			</g>
			<g id="g480">
			</g>
			<g id="g482">
			</g>
			<g id="g484">
			</g>
			<g id="g486">
			</g>
			<g id="g488">
			</g>
			<g id="g490">
			</g>
			<g id="g492">
			</g>
			<g id="g494">
			</g>
			<g id="g496">
			</g>
			<g id="g498">
			</g>
			<g id="g500">
				<text transform="matrix(0 2.8346 2.8346 0 101.2543 -479.5204)" class="st8 st9">0</text>
				<text transform="matrix(0 2.8346 2.8346 0 101.2543 -457.4578)" class="st8 st9">.</text>
				<text transform="matrix(0 2.8346 2.8346 0 101.2543 -446.4237)" class="st8 st9">0</text>
				<text transform="matrix(0 2.8346 2.8346 0 101.2543 -424.3583)" class="st8 st9">0</text>
				<text transform="matrix(0 2.8346 2.8346 0 101.2543 -329.4836)" class="st8 st9">0</text>
				<text transform="matrix(0 2.8346 2.8346 0 101.2543 -307.4182)" class="st8 st9">.</text>
				<text transform="matrix(0 2.8346 2.8346 0 101.2543 -296.3869)" class="st8 st9">2</text>
				<text transform="matrix(0 2.8346 2.8346 0 101.2543 -274.3215)" class="st8 st9">5</text>
				<text transform="matrix(0 2.8346 2.8346 0 101.2543 -179.4467)" class="st8 st9">0</text>
				<text transform="matrix(0 2.8346 2.8346 0 101.2543 -157.3814)" class="st8 st9">.</text>
				<text transform="matrix(0 2.8346 2.8346 0 101.2543 -146.3473)" class="st8 st9">5</text>
				<text transform="matrix(0 2.8346 2.8346 0 101.2543 -124.2847)" class="st8 st9">0</text>
				<text transform="matrix(0 2.8346 2.8346 0 101.2543 -29.4072)" class="st8 st9">0</text>
				<text transform="matrix(0 2.8346 2.8346 0 101.2543 -7.3446)" class="st8 st9">.</text>
				<text transform="matrix(0 2.8346 2.8346 0 101.2543 3.6895)" class="st8 st9">7</text>
				<text transform="matrix(0 2.8346 2.8346 0 101.2543 25.7549)" class="st8 st9">5</text>
				<text transform="matrix(0 2.8346 2.8346 0 101.2543 120.6297)" class="st8 st9">1</text>
				<text transform="matrix(0 2.8346 2.8346 0 101.2543 142.695)" class="st8 st9">.</text>
				<text transform="matrix(0 2.8346 2.8346 0 101.2543 153.7263)" class="st8 st9">0</text>
				<text transform="matrix(0 2.8346 2.8346 0 101.2543 175.7917)" class="st8 st9">0</text>
			</g>
			<g id="g522">
			</g>
			<g id="g524">
				<path id="path526" inkscape:connector-curvature="0" class="st10" d="M113.8-440.9h7.8"/>
				<path id="path528" inkscape:connector-curvature="0" class="st10" d="M113.8-290.9h7.8"/>
				<path id="path530" inkscape:connector-curvature="0" class="st10" d="M113.8-140.8h7.8"/>
				<path id="path532" inkscape:connector-curvature="0" class="st10" d="M113.8,9.2h7.8"/>
				<path id="path534" inkscape:connector-curvature="0" class="st10" d="M113.8,159.3h7.8"/>
			</g>
			<g id="g536">
			</g>
			<g id="g538">
			</g>
			<g id="g540">
			</g>
			<g id="g542">
			</g>
			<g id="g544">
			</g>
			<g id="g546">
			</g>
			<g id="g548">
				<path id="path550" inkscape:connector-curvature="0" class="st10" d="M312.6-485.3v7.8"/>
				<path id="path552" inkscape:connector-curvature="0" class="st10" d="M630.9-485.3v7.8"/>
			</g>
			<g id="g554">
			</g>
			<g id="g556">
			</g>
			<g id="g558">
			</g>
			<g id="g560">
			</g>
			<g id="g562">
			</g>
			<g id="g564">
			</g>
			<g id="g566">
			</g>
			<g id="g568">
			</g>
			<g id="g570">
			</g>
			<g id="g572">
			</g>
			<g id="g574">
			</g>
			<g id="g576">
			</g>
			<g id="g578">
			</g>
			<g id="g580">
			</g>
			<g id="g582">
			</g>
			<g id="g584">
			</g>
			<g id="g586">
			</g>
			<g id="g588">
			</g>
			<g id="g590">
			</g>
			<g id="g592">
			</g>
			<g id="g594">
			</g>
			<g id="g596">
			</g>
		</g>
		
			<g id="flowRoot5417" transform="matrix(-7.1226321e-4,-0.26458237,0.26458237,-7.1226321e-4,-174.71661,131.72788)" inkscape:export-xdpi="500" inkscape:export-ydpi="500">
		</g>
		
			<g id="flowRoot5417-7" transform="matrix(-7.1226099e-4,-0.26458237,0.26458237,-7.1226099e-4,-174.71647,21.285756)" inkscape:export-xdpi="500" inkscape:export-ydpi="500">
		</g>
		<text transform="matrix(1 0 0 1 53.9629 335.849)" class="st17 st18">Vernonia angustifolia</text>
		<text transform="matrix(1 0 0 1 54.375 23.3978)" class="st17 st18">Tephrosia virginiana</text>
	</g>
</g>
<g>
	<path d="M18.7,265.6c0.5,0,1.1,0.1,1.6,0.3c0.5,0.2,0.9,0.5,1.3,0.8c0.5,0.5,0.8,1,1,1.6c0.2,0.6,0.4,1.4,0.4,2.3v1.7l4.9-0.1v1.7
		l-13.1,0.1v-3.5c0-0.8,0.1-1.4,0.2-2c0.2-0.5,0.4-1.1,0.7-1.5c0.3-0.5,0.7-0.8,1.2-1.1C17.3,265.8,17.9,265.6,18.7,265.6
		L18.7,265.6z M18.7,267.4c-0.5,0-0.8,0.1-1.2,0.2c-0.4,0.2-0.6,0.4-0.8,0.7c-0.2,0.3-0.3,0.7-0.4,1c-0.1,0.4-0.1,0.8-0.1,1.3v1.7
		h5.2v-1.5c0-0.7-0.1-1.3-0.2-1.7c-0.1-0.5-0.4-0.8-0.6-1.1c-0.3-0.3-0.6-0.5-0.9-0.6C19.4,267.5,19.1,267.4,18.7,267.4L18.7,267.4z
		"/>
	<path d="M19.7,257.3L19.7,257.3c-0.1,0.3-0.1,0.5-0.1,0.8s-0.1,0.5-0.1,0.8c0,0.5,0.1,1,0.4,1.5c0.2,0.4,0.5,0.9,0.9,1.3h7v1.7
		h-9.8v-1.6l1.4-0.1c-0.5-0.6-0.9-1.2-1.1-1.7c-0.2-0.5-0.4-1-0.4-1.6c0-0.3,0-0.5,0-0.6c0.1-0.2,0.1-0.4,0.1-0.6H19.7z"/>
	<path d="M22.8,247.4c1.6,0,2.9,0.4,3.8,1.2c0.9,0.8,1.4,1.9,1.4,3.3c0,1.4-0.5,2.5-1.4,3.4c-0.9,0.8-2.2,1.2-3.8,1.2
		c-1.6,0-2.9-0.4-3.8-1.2c-1-0.8-1.4-1.9-1.4-3.3c0-1.4,0.5-2.5,1.4-3.3C20,247.8,21.2,247.4,22.8,247.4L22.8,247.4z M22.9,249.1
		c-1.3,0-2.2,0.2-2.9,0.7c-0.6,0.5-0.9,1.2-0.9,2.1c0,0.9,0.3,1.6,1,2.1c0.6,0.5,1.6,0.7,2.8,0.7c1.2,0,2.2-0.3,2.8-0.8
		c0.7-0.5,1-1.2,1-2.1c0-0.8-0.3-1.6-1-2C25,249.3,24.1,249,22.9,249.1L22.9,249.1z"/>
	<path d="M22.7,236.1c0.8,0,1.6,0.1,2.2,0.4s1.2,0.5,1.6,1c0.5,0.4,0.8,0.8,1.1,1.3c0.2,0.5,0.3,1.1,0.3,1.7c0,0.5-0.1,1-0.2,1.4
		c-0.1,0.4-0.3,0.8-0.5,1.3l0.5,0.1v1.6L14,244.8v-1.7H19c-0.4-0.5-0.7-1-1-1.5c-0.2-0.5-0.4-1.1-0.4-1.7c0-1.1,0.4-2,1.3-2.8
		C19.9,236.5,21.1,236.1,22.7,236.1L22.7,236.1z M22.7,237.9c-1.1,0-2,0.2-2.6,0.6c-0.6,0.4-0.9,1-0.9,1.9c0,0.5,0.1,1,0.3,1.4
		c0.2,0.5,0.5,1,0.8,1.4h5.6c0.2-0.5,0.4-0.9,0.5-1.2c0.1-0.4,0.1-0.8,0.1-1.2c0-0.9-0.3-1.6-0.9-2.1
		C25,238.1,24.1,237.9,22.7,237.9L22.7,237.9z"/>
	<path d="M27.7,225.9v1.6h-1c0.1,0.2,0.2,0.4,0.4,0.6c0.2,0.3,0.3,0.5,0.4,0.7c0.1,0.3,0.2,0.6,0.4,1c0.1,0.4,0.1,0.8,0.1,1.3
		c0,0.9-0.3,1.6-0.9,2.3c-0.5,0.6-1.3,0.9-2.2,0.9c-0.7,0-1.3-0.1-1.8-0.5c-0.5-0.3-0.8-0.8-1.1-1.3c-0.3-0.6-0.5-1.3-0.5-2.2
		c-0.1-0.8-0.2-1.7-0.2-2.7h-0.2c-0.4,0-0.7,0.1-1,0.2c-0.2,0.1-0.4,0.3-0.5,0.6c-0.1,0.2-0.2,0.5-0.3,0.8c0,0.3-0.1,0.7-0.1,1
		c0,0.4,0.1,0.9,0.2,1.4c0.1,0.5,0.3,1.1,0.5,1.6v0.1h-1.7c-0.1-0.3-0.2-0.8-0.2-1.4c-0.1-0.6-0.2-1.2-0.2-1.8
		c0-0.7,0.1-1.3,0.2-1.8c0.1-0.5,0.3-1,0.5-1.4c0.3-0.4,0.7-0.7,1.1-0.8c0.4-0.2,1-0.3,1.6-0.3H27.7z M25.3,227.6h-2.8
		c0.1,0.5,0.1,1.1,0.2,1.7c0.1,0.7,0.1,1.3,0.2,1.6c0.1,0.5,0.4,0.9,0.7,1.1c0.2,0.3,0.7,0.5,1.1,0.5c0.6,0,1-0.2,1.3-0.5
		c0.3-0.3,0.4-0.8,0.4-1.6c0-0.5-0.1-1.1-0.3-1.6C25.9,228.5,25.6,228,25.3,227.6L25.3,227.6z"/>
	<path d="M22.7,214.1c0.8,0,1.6,0.1,2.2,0.4c0.7,0.2,1.2,0.5,1.6,0.9c0.5,0.4,0.8,0.9,1.1,1.4c0.2,0.5,0.3,1,0.3,1.6
		s-0.1,1.1-0.2,1.5c-0.1,0.4-0.3,0.8-0.5,1.2l0.5,0.1v1.6H14v-1.6h4.9c-0.4-0.5-0.7-1-1-1.5s-0.4-1.1-0.4-1.7c0-1.2,0.4-2.1,1.3-2.8
		C19.8,214.5,21.1,214.1,22.7,214.1L22.7,214.1z M22.7,215.8c-1.1,0-2,0.2-2.6,0.6c-0.6,0.4-0.9,1-0.9,1.9c0,0.5,0.1,1,0.3,1.5
		c0.2,0.5,0.5,0.9,0.8,1.4l5.6-0.1c0.2-0.5,0.4-0.8,0.5-1.2c0.1-0.4,0.1-0.7,0.1-1.1c0-0.9-0.3-1.6-0.9-2.2
		C25,216.1,24,215.8,22.7,215.8L22.7,215.8z"/>
	<path d="M16.1,209.8l0.1,1.9h-1.7v-1.9H16.1z M27.7,209.9v1.7h-9.8v-1.7H27.7z"/>
	<polygon points="27.6,204.9 27.6,206.6 13.9,206.6 13.9,204.9 	"/>
	<path d="M16.1,199.8v1.9h-1.7l-0.1-1.9L16.1,199.8z M27.6,200v1.6l-9.8,0.1l-0.1-1.7H27.6z"/>
	<path d="M27.5,191.6c0.1,0.3,0.2,0.7,0.2,1c0.1,0.4,0.1,0.7,0.1,1c0,1-0.2,1.8-0.8,2.3c-0.5,0.5-1.4,0.8-2.6,0.8h-5.2v1.1h-1.4
		v-1.1h-2.8V195h2.8v-3.4h1.4v3.4h4.5c0.5,0,0.9,0,1.2-0.1c0.3,0,0.5-0.1,0.8-0.2c0.2-0.1,0.4-0.3,0.5-0.5c0.1-0.2,0.2-0.5,0.2-1
		c0-0.2-0.1-0.5-0.1-0.8c-0.1-0.3-0.2-0.5-0.2-0.6v-0.1H27.5z"/>
	<polygon points="17.8,181.2 31.2,186.9 31.2,188.6 27.1,186.8 17.8,190.7 17.8,188.9 25,185.9 17.8,182.9 	"/>
	<path d="M22.6,164.3c1.6-0.1,2.8,0.4,3.8,1.2c0.9,0.8,1.4,1.9,1.4,3.3s-0.4,2.5-1.4,3.3c-0.9,0.8-2.2,1.2-3.8,1.3
		c-1.6,0-2.9-0.4-3.8-1.3c-1-0.8-1.4-1.9-1.4-3.3c-0.1-1.4,0.4-2.5,1.4-3.3C19.7,164.7,21,164.3,22.6,164.3L22.6,164.3z M22.6,166
		c-1.3,0-2.2,0.2-2.8,0.8c-0.7,0.5-1,1.1-1,2s0.3,1.6,1,2.1c0.6,0.5,1.6,0.7,2.8,0.7s2.2-0.2,2.8-0.7c0.6-0.5,1-1.2,0.9-2.1
		c0-0.9-0.3-1.6-0.9-2.1C24.8,166.2,23.9,166,22.6,166L22.6,166z"/>
	<path d="M15.4,156.5L15.4,156.5c-0.1,0.3-0.1,0.5-0.2,0.8c-0.1,0.3-0.1,0.6-0.1,0.8c0,0.7,0.2,1.3,0.5,1.6c0.3,0.3,0.8,0.5,1.7,0.5
		h0.4v-3h1.4v2.9h8.4v1.6h-8.4v1.1h-1.4v-1.1h-0.4c-1.1,0-2-0.3-2.6-0.9c-0.7-0.6-1-1.4-1-2.5c0-0.4,0-0.7,0.1-1
		c0-0.3,0.1-0.6,0.1-0.8H15.4z"/>
	<path d="M24.6,142.1c0.9,0,1.7,0.4,2.2,1.1c0.6,0.8,0.9,1.7,0.9,3.1c0,0.7-0.1,1.4-0.3,2c-0.1,0.6-0.4,1.1-0.5,1.6H25v-0.1
		c0.4-0.5,0.7-1.1,1-1.7c0.2-0.6,0.3-1.3,0.3-1.8c0-0.8-0.1-1.3-0.4-1.7s-0.6-0.6-1.1-0.6c-0.4,0-0.7,0.1-0.9,0.4
		c-0.2,0.2-0.4,0.6-0.5,1.3c-0.1,0.2-0.1,0.5-0.2,0.9c-0.1,0.4-0.2,0.7-0.2,1c-0.2,0.9-0.5,1.5-1,1.9c-0.4,0.4-1,0.5-1.6,0.5
		c-0.4,0-0.8-0.1-1.1-0.2c-0.4-0.2-0.7-0.4-1-0.8c-0.2-0.3-0.5-0.7-0.7-1.2c-0.2-0.5-0.2-1.1-0.2-1.7c0-0.6,0.1-1.1,0.2-1.7
		c0.1-0.6,0.3-1.1,0.5-1.5l1.8-0.1v0.1c-0.3,0.4-0.6,1-0.8,1.6c-0.2,0.6-0.4,1.2-0.4,1.7c0,0.6,0.1,1.1,0.4,1.6s0.6,0.6,1,0.6
		s0.7-0.1,1-0.4c0.2-0.2,0.4-0.7,0.5-1.2c0.1-0.3,0.1-0.7,0.2-1c0.1-0.4,0.2-0.7,0.2-1c0.2-0.8,0.5-1.4,0.9-1.8
		S23.9,142.1,24.6,142.1L24.6,142.1z"/>
	<path d="M22.7,131.4v7.3c0.6,0,1.1-0.1,1.6-0.3c0.4-0.2,0.8-0.4,1.1-0.7c0.3-0.3,0.5-0.7,0.6-1.1c0.2-0.4,0.2-0.9,0.2-1.4
		c0-0.7-0.1-1.4-0.4-2c-0.2-0.7-0.5-1.1-0.8-1.4v-0.1l1.8-0.1c0.2,0.6,0.4,1.1,0.6,1.7c0.2,0.5,0.2,1.2,0.2,1.8
		c0,1.6-0.4,2.9-1.3,3.8c-0.9,0.9-2.1,1.4-3.7,1.4s-2.9-0.4-3.8-1.3c-1-0.8-1.4-2-1.4-3.4c0-1.3,0.4-2.3,1.1-3.1
		c0.8-0.7,1.9-1.1,3.3-1.1H22.7z M21.4,133.1c-0.8,0-1.6,0.2-2,0.7c-0.5,0.4-0.7,1.1-0.7,2s0.2,1.6,0.8,2.1c0.5,0.5,1.1,0.8,1.9,0.9
		V133.1z"/>
	<path d="M22.7,120.8v7.2c0.6,0,1.1-0.1,1.6-0.2c0.5-0.2,0.8-0.5,1.1-0.8c0.2-0.3,0.5-0.7,0.6-1.1c0.1-0.4,0.2-0.9,0.2-1.4
		c0-0.7-0.1-1.3-0.4-2c-0.3-0.7-0.5-1.1-0.8-1.4v-0.1h1.8c0.2,0.5,0.4,1.1,0.5,1.7c0.2,0.6,0.2,1.2,0.2,1.9c0.1,1.6-0.4,2.9-1.3,3.8
		c-0.9,0.9-2.2,1.4-3.8,1.4c-1.6,0-2.9-0.4-3.8-1.3c-0.9-0.9-1.4-2-1.4-3.5c-0.1-1.3,0.4-2.3,1.1-3.1c0.8-0.7,1.9-1.1,3.3-1.1H22.7z
		 M21.4,122.4c-0.9,0-1.6,0.2-2,0.7c-0.5,0.4-0.7,1.1-0.7,1.9c0,0.9,0.3,1.6,0.8,2.2c0.5,0.5,1.2,0.8,2,0.8V122.4z"/>
	<path d="M27.4,110.3v1.7h-1c0.4,0.4,0.7,1,1,1.4c0.2,0.5,0.4,1.1,0.4,1.7c0,1.2-0.5,2.1-1.4,2.8c-0.9,0.7-2.1,1-3.7,1
		c-0.8,0-1.6-0.1-2.2-0.4c-0.7-0.2-1.2-0.5-1.7-1c-0.4-0.4-0.8-0.8-1-1.4s-0.4-1.1-0.4-1.6c0-0.5,0.1-1,0.2-1.4
		c0.1-0.4,0.2-0.8,0.5-1.3h-4.3v-1.6L27.4,110.3z M25,111.9h-5.6c-0.2,0.4-0.4,0.8-0.4,1.2c-0.1,0.4-0.1,0.7-0.1,1.1
		c0,0.9,0.4,1.6,1,2.2c0.7,0.5,1.6,0.8,2.8,0.8c1.2,0,2-0.2,2.7-0.6c0.6-0.4,0.9-1.1,0.9-1.9c0-0.5-0.1-1-0.4-1.4
		C25.6,112.8,25.3,112.4,25,111.9L25,111.9z"/>
	<path d="M22.3,92.1c0.8,0,1.6,0.1,2.2,0.3c0.7,0.2,1.2,0.5,1.7,1c0.4,0.4,0.8,0.8,1,1.4s0.4,1.1,0.4,1.7c0,0.5-0.1,1-0.2,1.4
		s-0.3,0.8-0.5,1.3H31v1.6l-13.4,0.1V99h1c-0.4-0.4-0.7-0.9-0.9-1.4c-0.3-0.6-0.4-1.1-0.4-1.8c0-1.1,0.5-2.1,1.4-2.8
		C19.4,92.4,20.7,92.1,22.3,92.1L22.3,92.1z M22.3,93.8c-1.1,0-2,0.2-2.6,0.6c-0.6,0.4-0.9,1-0.9,1.9c0,0.5,0.1,1,0.4,1.4
		c0.2,0.5,0.5,1,0.8,1.4h5.6c0.2-0.5,0.4-0.9,0.4-1.2c0.1-0.4,0.1-0.7,0.1-1.1c0-1-0.3-1.7-1-2.2C24.5,94,23.6,93.8,22.3,93.8
		L22.3,93.8z"/>
	<path d="M19.3,83.4L19.3,83.4c-0.1,0.3-0.1,0.5-0.1,0.8c0,0.2,0,0.5,0,0.8c0,0.5,0.1,1,0.3,1.4s0.5,1,0.9,1.4h7v1.6l-9.8,0.1v-1.7
		H19c-0.5-0.7-0.9-1.2-1.1-1.7c-0.2-0.5-0.4-1-0.4-1.5c0-0.3,0-0.5,0.1-0.7c0-0.1,0-0.3,0.1-0.5H19.3z"/>
	<path d="M22.5,73.5l0.1,7.3c0.6,0,1.1-0.1,1.6-0.3c0.5-0.2,0.8-0.4,1.1-0.7c0.3-0.3,0.5-0.7,0.7-1.1s0.2-0.9,0.2-1.4
		c0-0.7-0.1-1.4-0.4-2c-0.3-0.7-0.5-1.1-0.8-1.4v-0.1h1.8c0.2,0.6,0.5,1.1,0.6,1.7c0.2,0.5,0.2,1.2,0.2,1.8c0,1.6-0.4,2.9-1.3,3.8
		c-0.9,0.9-2.2,1.4-3.8,1.4c-1.6,0-2.9-0.4-3.8-1.3c-1-0.8-1.4-2-1.4-3.4c0-1.3,0.4-2.3,1.2-3.1c0.7-0.7,1.9-1.1,3.3-1.1H22.5z
		 M21.2,75.2c-0.8,0-1.5,0.2-2,0.7c-0.5,0.4-0.7,1.1-0.7,2s0.3,1.6,0.8,2.1c0.5,0.5,1.2,0.8,2,0.9L21.2,75.2z"/>
	<path d="M27.2,63.1v1.6h-1c0.4,0.5,0.7,1,1,1.5s0.4,1.1,0.4,1.7c0,1.1-0.5,2.1-1.4,2.8c-0.9,0.7-2.2,1-3.7,1
		c-0.8,0-1.6-0.1-2.2-0.4c-0.7-0.2-1.2-0.5-1.7-1c-0.4-0.4-0.8-0.8-1-1.4c-0.2-0.5-0.4-1.1-0.4-1.7c0-0.5,0.1-1,0.2-1.3
		c0.1-0.4,0.2-0.8,0.5-1.3h-4.3v-1.7H27.2z M24.8,64.7l-5.6,0.1c-0.2,0.4-0.4,0.8-0.4,1.2c-0.1,0.3-0.1,0.7-0.1,1.1
		c0,0.9,0.4,1.6,1,2.2c0.7,0.5,1.6,0.8,2.8,0.7c1.2,0,2-0.2,2.6-0.6c0.6-0.4,0.9-1,0.9-1.9c0-0.4-0.1-0.9-0.3-1.4
		C25.4,65.6,25.1,65.1,24.8,64.7L24.8,64.7z"/>
	<path d="M27.2,52.2l0.1,1.7h-1.1c0.1,0.1,0.2,0.4,0.4,0.6c0.2,0.2,0.3,0.5,0.4,0.7c0.1,0.2,0.2,0.6,0.4,1c0.1,0.3,0.1,0.7,0.1,1.2
		c0,0.9-0.3,1.7-0.8,2.3c-0.6,0.6-1.4,0.9-2.3,0.9c-0.7,0.1-1.3-0.1-1.8-0.4c-0.4-0.4-0.8-0.8-1.1-1.4s-0.4-1.3-0.5-2.2
		c-0.1-0.8-0.2-1.7-0.2-2.7h-0.2c-0.4,0-0.7,0.1-0.9,0.2c-0.2,0.2-0.5,0.4-0.6,0.6c-0.1,0.2-0.2,0.5-0.3,0.8c0,0.3-0.1,0.7-0.1,1
		c0,0.4,0.1,0.9,0.2,1.4c0.1,0.5,0.3,1.1,0.5,1.7v0.1h-1.7c-0.1-0.3-0.2-0.8-0.3-1.4c-0.1-0.6-0.2-1.2-0.2-1.8
		c0-0.7,0.1-1.3,0.2-1.8c0.1-0.5,0.3-1,0.6-1.3c0.2-0.4,0.6-0.7,1-0.8c0.4-0.2,1-0.3,1.6-0.3L27.2,52.2z M24.8,53.9h-2.7
		c0,0.5,0.1,1.1,0.1,1.8c0.1,0.7,0.1,1.2,0.2,1.6c0.2,0.5,0.4,0.8,0.7,1.1c0.3,0.3,0.7,0.4,1.1,0.4c0.6,0,1-0.2,1.3-0.5
		c0.2-0.4,0.4-0.9,0.4-1.6c0-0.6-0.1-1.1-0.4-1.6S25.1,54.3,24.8,53.9L24.8,53.9z"/>
	<path d="M27.1,43.9c0.1,0.3,0.1,0.7,0.2,1c0.1,0.4,0.1,0.7,0.1,1c0,1-0.2,1.8-0.8,2.3C26,48.7,25.2,49,24,49h-5.2v1.1h-1.4V49h-2.8
		v-1.7h2.8l-0.1-3.4h1.4v3.4h4.4c0.5,0,1,0,1.3-0.1c0.2,0,0.5-0.1,0.8-0.2c0.2-0.1,0.4-0.3,0.5-0.5c0.1-0.2,0.1-0.5,0.1-1
		c0-0.2,0-0.5-0.1-0.8c-0.1-0.3-0.1-0.5-0.2-0.6v-0.1H27.1z"/>
	<path d="M15.7,40.2V42H14v-1.9H15.7z M27.2,40.2v1.6l-9.8,0.1v-1.7H27.2z"/>
	<path d="M22.3,28.6c1.6,0,2.8,0.4,3.8,1.2c0.9,0.8,1.4,1.9,1.4,3.3c0,1.4-0.4,2.5-1.4,3.3c-0.9,0.8-2.2,1.3-3.8,1.3
		c-1.6,0-2.9-0.4-3.8-1.2c-1-0.8-1.4-1.9-1.4-3.4c0-1.3,0.5-2.5,1.4-3.3C19.4,29,20.6,28.6,22.3,28.6L22.3,28.6z M22.3,30.3
		c-1.3,0-2.2,0.2-2.8,0.8c-0.7,0.5-1,1.2-1,2c0,0.9,0.3,1.6,1,2.1c0.6,0.5,1.6,0.7,2.8,0.7c1.2,0,2.2-0.2,2.8-0.7
		c0.6-0.5,0.9-1.2,0.9-2.1c0-0.9-0.3-1.6-0.9-2C24.4,30.5,23.5,30.3,22.3,30.3L22.3,30.3z"/>
	<path d="M27.1,17.8v1.7h-5.6c-0.5,0-0.9,0-1.3,0.1c-0.4,0.1-0.7,0.2-1,0.3s-0.4,0.4-0.5,0.7c-0.1,0.2-0.2,0.6-0.2,1
		c0,0.5,0.1,1,0.4,1.4c0.2,0.5,0.5,1,0.8,1.4l7.3-0.1V26h-9.8v-1.6h1.1c-0.4-0.5-0.8-1.1-1-1.6S17,21.6,17,21.1c0-1.1,0.3-1.9,1-2.5
		c0.6-0.5,1.6-0.8,2.8-0.8H27.1z"/>
</g>
<g>
	<path d="M20.3,578.5c0.5,0,1.1,0.1,1.6,0.3c0.5,0.2,0.9,0.5,1.3,0.8c0.5,0.5,0.8,1,1,1.6c0.2,0.6,0.4,1.4,0.4,2.3v1.7l4.9-0.1v1.7
		l-13.1,0.1v-3.5c0-0.8,0.1-1.4,0.2-2c0.2-0.5,0.4-1.1,0.7-1.5c0.3-0.5,0.7-0.8,1.2-1.1C18.9,578.7,19.5,578.5,20.3,578.5
		L20.3,578.5z M20.4,580.3c-0.5,0-0.8,0.1-1.2,0.2c-0.4,0.2-0.6,0.4-0.8,0.7c-0.2,0.3-0.3,0.7-0.4,1c-0.1,0.4-0.1,0.8-0.1,1.3v1.7
		h5.2v-1.5c0-0.7-0.1-1.3-0.2-1.7c-0.1-0.5-0.4-0.8-0.6-1.1c-0.3-0.3-0.6-0.5-0.9-0.6C21.1,580.4,20.7,580.3,20.4,580.3L20.4,580.3z
		"/>
	<path d="M21.4,570.2L21.4,570.2c-0.1,0.3-0.1,0.5-0.1,0.8s-0.1,0.5-0.1,0.8c0,0.5,0.1,1,0.4,1.5c0.2,0.4,0.5,0.9,0.9,1.3h7v1.7
		h-9.8v-1.6l1.4-0.1c-0.5-0.6-0.9-1.2-1.1-1.7c-0.2-0.5-0.4-1-0.4-1.6c0-0.3,0-0.5,0-0.6c0.1-0.2,0.1-0.4,0.1-0.6H21.4z"/>
	<path d="M24.4,560.3c1.6,0,2.9,0.4,3.8,1.2c0.9,0.8,1.4,1.9,1.4,3.3c0,1.4-0.5,2.5-1.4,3.4c-0.9,0.8-2.2,1.2-3.8,1.2
		c-1.6,0-2.9-0.4-3.8-1.2c-1-0.8-1.4-1.9-1.4-3.3c0-1.4,0.5-2.5,1.4-3.3C21.6,560.7,22.9,560.3,24.4,560.3L24.4,560.3z M24.5,562
		c-1.3,0-2.2,0.2-2.9,0.7c-0.6,0.5-0.9,1.2-0.9,2.1c0,0.9,0.3,1.6,1,2.1c0.6,0.5,1.6,0.7,2.8,0.7c1.2,0,2.2-0.3,2.8-0.8
		c0.7-0.5,1-1.2,1-2.1c0-0.8-0.3-1.6-1-2C26.7,562.3,25.7,562,24.5,562L24.5,562z"/>
	<path d="M24.4,549.1c0.8,0,1.6,0.1,2.2,0.4s1.2,0.5,1.6,1c0.5,0.4,0.8,0.8,1.1,1.3c0.2,0.5,0.3,1.1,0.3,1.7c0,0.5-0.1,1-0.2,1.4
		c-0.1,0.4-0.3,0.8-0.5,1.3l0.5,0.1v1.6l-13.7,0.1v-1.7h4.9c-0.4-0.5-0.7-1-1-1.5c-0.2-0.5-0.4-1.1-0.4-1.7c0-1.1,0.4-2,1.3-2.8
		C21.5,549.4,22.8,549.1,24.4,549.1L24.4,549.1z M24.4,550.8c-1.1,0-2,0.2-2.6,0.6c-0.6,0.4-0.9,1-0.9,1.9c0,0.5,0.1,1,0.3,1.4
		c0.2,0.5,0.5,1,0.8,1.4h5.6c0.2-0.5,0.4-0.9,0.5-1.2c0.1-0.4,0.1-0.8,0.1-1.2c0-0.9-0.3-1.6-0.9-2.1
		C26.7,551,25.7,550.8,24.4,550.8L24.4,550.8z"/>
	<path d="M29.3,538.9v1.6h-1c0.1,0.2,0.2,0.4,0.4,0.6c0.2,0.3,0.3,0.5,0.4,0.7c0.1,0.3,0.2,0.6,0.4,1c0.1,0.4,0.1,0.8,0.1,1.3
		c0,0.9-0.3,1.6-0.9,2.3c-0.5,0.6-1.3,0.9-2.2,0.9c-0.7,0-1.3-0.1-1.8-0.5c-0.5-0.3-0.8-0.8-1.1-1.3c-0.3-0.6-0.5-1.3-0.5-2.2
		c-0.1-0.8-0.2-1.7-0.2-2.7h-0.2c-0.4,0-0.7,0.1-1,0.2c-0.2,0.1-0.4,0.3-0.5,0.6c-0.1,0.2-0.2,0.5-0.3,0.8c0,0.3-0.1,0.7-0.1,1
		c0,0.4,0.1,0.9,0.2,1.4c0.1,0.5,0.3,1.1,0.5,1.6v0.1h-1.7c-0.1-0.3-0.2-0.8-0.2-1.4c-0.1-0.6-0.2-1.2-0.2-1.8
		c0-0.7,0.1-1.3,0.2-1.8c0.1-0.5,0.3-1,0.5-1.4c0.3-0.4,0.7-0.7,1.1-0.8c0.4-0.2,1-0.3,1.6-0.3H29.3z M26.9,540.5h-2.8
		c0.1,0.5,0.1,1.1,0.2,1.7c0.1,0.7,0.1,1.3,0.2,1.6c0.1,0.5,0.4,0.9,0.7,1.1c0.2,0.3,0.7,0.5,1.1,0.5c0.6,0,1-0.2,1.3-0.5
		c0.3-0.3,0.4-0.8,0.4-1.6c0-0.5-0.1-1.1-0.3-1.6C27.5,541.4,27.2,540.9,26.9,540.5L26.9,540.5z"/>
	<path d="M24.3,527c0.8,0,1.6,0.1,2.2,0.4c0.7,0.2,1.2,0.5,1.6,0.9c0.5,0.4,0.8,0.9,1.1,1.4c0.2,0.5,0.3,1,0.3,1.6s-0.1,1.1-0.2,1.5
		c-0.1,0.4-0.3,0.8-0.5,1.2l0.5,0.1v1.6H15.6v-1.6h4.9c-0.4-0.5-0.7-1-1-1.5c-0.2-0.5-0.4-1.1-0.4-1.7c0-1.2,0.4-2.1,1.3-2.8
		C21.4,527.4,22.7,527,24.3,527L24.3,527z M24.3,528.7c-1.1,0-2,0.2-2.6,0.6c-0.6,0.4-0.9,1-0.9,1.9c0,0.5,0.1,1,0.3,1.5
		c0.2,0.5,0.5,0.9,0.8,1.4l5.6-0.1c0.2-0.5,0.4-0.8,0.5-1.2c0.1-0.4,0.1-0.7,0.1-1.1c0-0.9-0.3-1.6-0.9-2.2
		C26.6,529,25.6,528.7,24.3,528.7L24.3,528.7z"/>
	<path d="M17.8,522.7l0.1,1.9h-1.7v-1.9H17.8z M29.3,522.8v1.7h-9.8v-1.7H29.3z"/>
	<polygon points="29.2,517.8 29.2,519.5 15.6,519.5 15.6,517.9 	"/>
	<path d="M17.8,512.8v1.9h-1.7l-0.1-1.9L17.8,512.8z M29.2,512.9v1.6l-9.8,0.1l-0.1-1.7H29.2z"/>
	<path d="M29.1,504.5c0.1,0.3,0.2,0.7,0.2,1c0.1,0.4,0.1,0.7,0.1,1c0,1-0.2,1.8-0.8,2.3c-0.5,0.5-1.4,0.8-2.6,0.8h-5.2v1.1h-1.4
		v-1.1h-2.8v-1.7h2.8v-3.4h1.4v3.4h4.5c0.5,0,0.9,0,1.2-0.1c0.3,0,0.5-0.1,0.8-0.2c0.2-0.1,0.4-0.3,0.5-0.5c0.1-0.2,0.2-0.5,0.2-1
		c0-0.2-0.1-0.5-0.1-0.8c-0.1-0.3-0.2-0.5-0.2-0.6v-0.1H29.1z"/>
	<polygon points="19.4,494.1 32.8,499.8 32.8,501.5 28.8,499.7 19.4,503.6 19.4,501.8 26.7,498.8 19.4,495.8 	"/>
	<path d="M24.3,477.2c1.6-0.1,2.8,0.4,3.8,1.2c0.9,0.8,1.4,1.9,1.4,3.3S29,484.2,28,485c-0.9,0.8-2.2,1.2-3.8,1.3
		c-1.6,0-2.9-0.4-3.8-1.3c-1-0.8-1.4-1.9-1.4-3.3c-0.1-1.4,0.4-2.5,1.4-3.3C21.4,477.6,22.6,477.2,24.3,477.2L24.3,477.2z
		 M24.3,478.9c-1.3,0-2.2,0.2-2.8,0.8c-0.7,0.5-1,1.1-1,2s0.3,1.6,1,2.1c0.6,0.5,1.6,0.7,2.8,0.7s2.2-0.2,2.8-0.7
		c0.6-0.5,1-1.2,0.9-2.1c0-0.9-0.3-1.6-0.9-2.1C26.4,479.2,25.5,478.9,24.3,478.9L24.3,478.9z"/>
	<path d="M17.1,469.4L17.1,469.4c-0.1,0.3-0.1,0.5-0.2,0.8c-0.1,0.3-0.1,0.6-0.1,0.8c0,0.7,0.2,1.3,0.5,1.6c0.3,0.3,0.8,0.5,1.7,0.5
		h0.4v-3h1.4v2.9h8.4v1.6h-8.4v1.1h-1.4v-1.1H19c-1.1,0-2-0.3-2.6-0.9c-0.7-0.6-1-1.4-1-2.5c0-0.4,0-0.7,0.1-1
		c0-0.3,0.1-0.6,0.1-0.8H17.1z"/>
	<path d="M26.2,455c0.9,0,1.7,0.4,2.2,1.1c0.6,0.8,0.9,1.7,0.9,3.1c0,0.7-0.1,1.4-0.3,2c-0.1,0.6-0.4,1.1-0.5,1.6h-1.9v-0.1
		c0.4-0.5,0.7-1.1,1-1.7c0.2-0.6,0.3-1.3,0.3-1.8c0-0.8-0.1-1.3-0.4-1.7s-0.6-0.6-1.1-0.6c-0.4,0-0.7,0.1-0.9,0.4
		c-0.2,0.2-0.4,0.6-0.5,1.3c-0.1,0.2-0.1,0.5-0.2,0.9c-0.1,0.4-0.2,0.7-0.2,1c-0.2,0.9-0.5,1.5-1,1.9c-0.4,0.4-1,0.5-1.6,0.5
		c-0.4,0-0.8-0.1-1.1-0.2c-0.4-0.2-0.7-0.4-1-0.8c-0.2-0.3-0.5-0.7-0.7-1.2c-0.2-0.5-0.2-1.1-0.2-1.7c0-0.6,0.1-1.1,0.2-1.7
		c0.1-0.6,0.3-1.1,0.5-1.5l1.8-0.1v0.1c-0.3,0.4-0.6,1-0.8,1.6c-0.2,0.6-0.4,1.2-0.4,1.7c0,0.6,0.1,1.1,0.4,1.6s0.6,0.6,1,0.6
		s0.7-0.1,1-0.4c0.2-0.2,0.4-0.7,0.5-1.2c0.1-0.3,0.1-0.7,0.2-1c0.1-0.4,0.2-0.7,0.2-1c0.2-0.8,0.5-1.4,0.9-1.8S25.5,455,26.2,455
		L26.2,455z"/>
	<path d="M24.3,444.4v7.3c0.6,0,1.1-0.1,1.6-0.3c0.4-0.2,0.8-0.4,1.1-0.7c0.3-0.3,0.5-0.7,0.6-1.1c0.2-0.4,0.2-0.9,0.2-1.4
		c0-0.7-0.1-1.4-0.4-2c-0.2-0.7-0.5-1.1-0.8-1.4v-0.1l1.8-0.1c0.2,0.6,0.4,1.1,0.6,1.7c0.2,0.5,0.2,1.2,0.2,1.8
		c0,1.6-0.4,2.9-1.3,3.8c-0.9,0.9-2.1,1.4-3.7,1.4c-1.6,0-2.9-0.4-3.8-1.3c-1-0.8-1.4-2-1.4-3.4c0-1.3,0.4-2.3,1.1-3.1
		c0.8-0.7,1.9-1.1,3.3-1.1H24.3z M23.1,446c-0.8,0-1.6,0.2-2,0.7c-0.5,0.4-0.7,1.1-0.7,2s0.2,1.6,0.8,2.1c0.5,0.5,1.1,0.8,1.9,0.9
		V446z"/>
	<path d="M24.3,433.7v7.2c0.6,0,1.1-0.1,1.6-0.2c0.5-0.2,0.8-0.5,1.1-0.8c0.2-0.3,0.5-0.7,0.6-1.1c0.1-0.4,0.2-0.9,0.2-1.4
		c0-0.7-0.1-1.3-0.4-2c-0.3-0.7-0.5-1.1-0.8-1.4v-0.1h1.8c0.2,0.5,0.4,1.1,0.5,1.7c0.2,0.6,0.2,1.2,0.2,1.9c0.1,1.6-0.4,2.9-1.3,3.8
		c-0.9,0.9-2.2,1.4-3.8,1.4s-2.9-0.4-3.8-1.3c-0.9-0.9-1.4-2-1.4-3.5c-0.1-1.3,0.4-2.3,1.1-3.1c0.8-0.7,1.9-1.1,3.3-1.1H24.3z
		 M23.1,435.3c-0.9,0-1.6,0.2-2,0.7c-0.5,0.4-0.7,1.1-0.7,1.9c0,0.9,0.3,1.6,0.8,2.2c0.5,0.5,1.2,0.8,2,0.8V435.3z"/>
	<path d="M29,423.2v1.7h-1c0.4,0.4,0.7,1,1,1.4c0.2,0.5,0.4,1.1,0.4,1.7c0,1.2-0.5,2.1-1.4,2.8c-0.9,0.7-2.1,1-3.7,1
		c-0.8,0-1.6-0.1-2.2-0.4c-0.7-0.2-1.2-0.5-1.7-1c-0.4-0.4-0.8-0.8-1-1.4s-0.4-1.1-0.4-1.6c0-0.5,0.1-1,0.2-1.4
		c0.1-0.4,0.2-0.8,0.5-1.3h-4.3v-1.6L29,423.2z M26.6,424.9H21c-0.2,0.4-0.4,0.8-0.4,1.2c-0.1,0.4-0.1,0.7-0.1,1.1
		c0,0.9,0.4,1.6,1,2.2c0.7,0.5,1.6,0.8,2.8,0.8c1.2,0,2-0.2,2.7-0.6c0.6-0.4,0.9-1.1,0.9-1.9c0-0.5-0.1-1-0.4-1.4
		C27.2,425.7,26.9,425.3,26.6,424.9L26.6,424.9z"/>
	<path d="M23.9,405c0.8,0,1.6,0.1,2.2,0.3c0.7,0.2,1.2,0.5,1.7,1c0.4,0.4,0.8,0.8,1,1.4s0.4,1.1,0.4,1.7c0,0.5-0.1,1-0.2,1.4
		c-0.1,0.4-0.3,0.8-0.5,1.3h4.1v1.6l-13.4,0.1V412h1c-0.4-0.4-0.7-0.9-0.9-1.4c-0.3-0.6-0.4-1.1-0.4-1.8c0-1.1,0.5-2.1,1.4-2.8
		C21.1,405.3,22.3,405,23.9,405L23.9,405z M24,406.7c-1.1,0-2,0.2-2.6,0.6c-0.6,0.4-0.9,1-0.9,1.9c0,0.5,0.1,1,0.4,1.4
		c0.2,0.5,0.5,1,0.8,1.4h5.6c0.2-0.5,0.4-0.9,0.4-1.2c0.1-0.4,0.1-0.7,0.1-1.1c0-1-0.3-1.7-1-2.2C26.1,406.9,25.2,406.7,24,406.7
		L24,406.7z"/>
	<path d="M20.9,396.3L20.9,396.3c-0.1,0.3-0.1,0.5-0.1,0.8c0,0.2,0,0.5,0,0.8c0,0.5,0.1,1,0.3,1.4c0.2,0.5,0.5,1,0.9,1.4h7v1.6
		l-9.8,0.1v-1.7h1.5c-0.5-0.7-0.9-1.2-1.1-1.7c-0.2-0.5-0.4-1-0.4-1.5c0-0.3,0-0.5,0.1-0.7c0-0.1,0-0.3,0.1-0.5H20.9z"/>
	<path d="M24.1,386.5l0.1,7.3c0.6,0,1.1-0.1,1.6-0.3c0.5-0.2,0.8-0.4,1.1-0.7c0.3-0.3,0.5-0.7,0.7-1.1c0.1-0.4,0.2-0.9,0.2-1.4
		c0-0.7-0.1-1.4-0.4-2c-0.3-0.7-0.5-1.1-0.8-1.4v-0.1h1.8c0.2,0.6,0.5,1.1,0.6,1.7c0.2,0.5,0.2,1.2,0.2,1.8c0,1.6-0.4,2.9-1.3,3.8
		c-0.9,0.9-2.2,1.4-3.8,1.4c-1.6,0-2.9-0.4-3.8-1.3c-1-0.8-1.4-2-1.4-3.4c0-1.3,0.4-2.3,1.2-3.1c0.7-0.7,1.9-1.1,3.3-1.1H24.1z
		 M22.9,388.1c-0.8,0-1.5,0.2-2,0.7c-0.5,0.4-0.7,1.1-0.7,2s0.3,1.6,0.8,2.1c0.5,0.5,1.2,0.8,2,0.9L22.9,388.1z"/>
	<path d="M28.9,376v1.6h-1c0.4,0.5,0.7,1,1,1.5s0.4,1.1,0.4,1.7c0,1.1-0.5,2.1-1.4,2.8c-0.9,0.7-2.2,1-3.7,1c-0.8,0-1.6-0.1-2.2-0.4
		c-0.7-0.2-1.2-0.5-1.7-1c-0.4-0.4-0.8-0.8-1-1.4c-0.2-0.5-0.4-1.1-0.4-1.7c0-0.5,0.1-1,0.2-1.3c0.1-0.4,0.2-0.8,0.5-1.3h-4.3V376
		H28.9z M26.5,377.6l-5.6,0.1c-0.2,0.4-0.4,0.8-0.4,1.2c-0.1,0.3-0.1,0.7-0.1,1.1c0,0.9,0.4,1.6,1,2.2c0.7,0.5,1.6,0.8,2.8,0.7
		c1.2,0,2-0.2,2.6-0.6c0.6-0.4,0.9-1,0.9-1.9c0-0.4-0.1-0.9-0.3-1.4C27.1,378.5,26.8,378.1,26.5,377.6L26.5,377.6z"/>
	<path d="M28.8,365.1l0.1,1.7h-1.1c0.1,0.1,0.2,0.4,0.4,0.6c0.2,0.2,0.3,0.5,0.4,0.7c0.1,0.2,0.2,0.6,0.4,1c0.1,0.3,0.1,0.7,0.1,1.2
		c0,0.9-0.3,1.7-0.8,2.3c-0.6,0.6-1.4,0.9-2.3,0.9c-0.7,0.1-1.3-0.1-1.8-0.4c-0.4-0.4-0.8-0.8-1.1-1.4s-0.4-1.3-0.5-2.2
		c-0.1-0.8-0.2-1.7-0.2-2.7h-0.2c-0.4,0-0.7,0.1-0.9,0.2c-0.2,0.2-0.5,0.4-0.6,0.6c-0.1,0.2-0.2,0.5-0.3,0.8c0,0.3-0.1,0.7-0.1,1
		c0,0.4,0.1,0.9,0.2,1.4c0.1,0.5,0.3,1.1,0.5,1.7v0.1h-1.7c-0.1-0.3-0.2-0.8-0.3-1.4c-0.1-0.6-0.2-1.2-0.2-1.8
		c0-0.7,0.1-1.3,0.2-1.8c0.1-0.5,0.3-1,0.6-1.3c0.2-0.4,0.6-0.7,1-0.8c0.4-0.2,1-0.3,1.6-0.3L28.8,365.1z M26.4,366.8h-2.7
		c0,0.5,0.1,1.1,0.1,1.8c0.1,0.7,0.1,1.2,0.2,1.6c0.2,0.5,0.4,0.8,0.7,1.1c0.3,0.3,0.7,0.4,1.1,0.4c0.6,0,1-0.2,1.3-0.5
		c0.2-0.4,0.4-0.9,0.4-1.6c0-0.6-0.1-1.1-0.4-1.6C27,367.6,26.8,367.2,26.4,366.8L26.4,366.8z"/>
	<path d="M28.8,356.8c0.1,0.3,0.1,0.7,0.2,1c0.1,0.4,0.1,0.7,0.1,1c0,1-0.2,1.8-0.8,2.3c-0.5,0.5-1.4,0.8-2.6,0.8h-5.2v1.1H19v-1.1
		h-2.8v-1.7H19l-0.1-3.4h1.4v3.4h4.4c0.5,0,1,0,1.3-0.1c0.2,0,0.5-0.1,0.8-0.2c0.2-0.1,0.4-0.3,0.5-0.5c0.1-0.2,0.1-0.5,0.1-1
		c0-0.2,0-0.5-0.1-0.8c-0.1-0.3-0.1-0.5-0.2-0.6v-0.1H28.8z"/>
	<path d="M17.4,353.1v1.9h-1.7v-1.9H17.4z M28.8,353.2v1.6l-9.8,0.1v-1.7H28.8z"/>
	<path d="M23.9,341.5c1.6,0,2.8,0.4,3.8,1.2c0.9,0.8,1.4,1.9,1.4,3.3c0,1.4-0.4,2.5-1.4,3.3c-0.9,0.8-2.2,1.3-3.8,1.3
		c-1.6,0-2.9-0.4-3.8-1.2c-1-0.8-1.4-1.9-1.4-3.4c0-1.3,0.5-2.5,1.4-3.3C21,341.9,22.3,341.5,23.9,341.5L23.9,341.5z M23.9,343.2
		c-1.3,0-2.2,0.2-2.8,0.8c-0.7,0.5-1,1.2-1,2c0,0.9,0.3,1.6,1,2.1c0.6,0.5,1.6,0.7,2.8,0.7c1.2,0,2.2-0.2,2.8-0.7
		c0.6-0.5,0.9-1.2,0.9-2.1c0-0.9-0.3-1.6-0.9-2C26.1,343.4,25.1,343.2,23.9,343.2L23.9,343.2z"/>
	<path d="M28.8,330.7v1.7h-5.6c-0.5,0-0.9,0-1.3,0.1c-0.4,0.1-0.7,0.2-1,0.3s-0.4,0.4-0.5,0.7c-0.1,0.2-0.2,0.6-0.2,1
		c0,0.5,0.1,1,0.4,1.4c0.2,0.5,0.5,1,0.8,1.4l7.3-0.1v1.7H19v-1.6h1.1c-0.4-0.5-0.8-1.1-1-1.6s-0.4-1.1-0.4-1.7c0-1.1,0.3-1.9,1-2.5
		c0.6-0.5,1.6-0.8,2.8-0.8H28.8z"/>
</g>
</svg>
